G04 DesignSpark PCB Gerber Version 10.0 Build 5299*
G04 #@! TF.Part,Single*
G04 #@! TF.FileFunction,Legend,Top*
G04 #@! TF.FilePolarity,Positive*
%FSLAX35Y35*%
%MOIN*%
%ADD13C,0.00394*%
%ADD10C,0.00500*%
%ADD11C,0.00787*%
%ADD12C,0.00800*%
%ADD14C,0.01000*%
%ADD17C,0.02500*%
G04 #@! TD.AperFunction*
X0Y0D02*
D02*
D10*
X250Y59305D02*
Y216785D01*
X78990D01*
X17179Y90841D02*
G75*
G03*
Y60841I0J-15000D01*
G01*
G75*
G03*
Y90841I0J15000D01*
G01*
X19541Y211707D02*
G75*
G03*
Y181707I0J-15000D01*
G01*
G75*
G03*
Y211707I0J15000D01*
G01*
X78990Y250D02*
X315211D01*
X78990Y59305D02*
X250D01*
X78990D02*
Y250D01*
Y275447D02*
X315211D01*
X78990D02*
Y216785D01*
X106474Y227415D02*
Y239226D01*
X105674D01*
Y227415D01*
X106474D01*
G36*
X106474Y227415D02*
Y239226D01*
X105674D01*
Y227415D01*
X106474D01*
G37*
X108874Y240395D02*
G75*
G03*
Y241995I0J800D01*
G01*
G75*
G03*
Y240395I0J-800D01*
G01*
G36*
X108874Y240395D02*
G75*
G03*
Y241995I0J800D01*
G01*
G75*
G03*
Y240395I0J-800D01*
G01*
G37*
X111274Y227415D02*
X94474D01*
X111274Y239226D02*
X94874D01*
X118091Y256507D02*
G75*
G03*
X143039I12474J0D01*
G01*
G75*
G03*
X118091I-12474J0D01*
G01*
X149856Y137258D02*
G75*
G03*
X149463Y139226I-197J984D01*
G01*
G75*
G03*
X149856Y137258I197J-984D01*
G01*
G36*
X149856Y137258D02*
G75*
G03*
X149463Y139226I-197J984D01*
G01*
G75*
G03*
X149856Y137258I197J-984D01*
G01*
G37*
X151825Y134896D02*
Y170329D01*
X116392D01*
Y134896D01*
X151825D01*
X157415Y257431D02*
X197415D01*
X157415Y262431D02*
Y245431D01*
X197415D01*
Y262431D01*
X157415D01*
X162455Y136864D02*
G75*
G03*
X164030I787J0D01*
G01*
G75*
G03*
X162455I-787J0D01*
G01*
G36*
X162455Y136864D02*
G75*
G03*
X164030I787J0D01*
G01*
G75*
G03*
X162455I-787J0D01*
G01*
G37*
X166234Y1156D02*
X256234D01*
X166234Y116156D02*
Y1156D01*
X175883Y203918D02*
G75*
G03*
Y228866I0J12474D01*
G01*
G75*
G03*
Y203918I0J-12474D01*
G01*
X229069Y256644D02*
X269069D01*
X229069Y261644D02*
Y244644D01*
X269069D01*
Y261644D01*
X229069D01*
X256234Y116156D02*
X166234D01*
X256234D02*
Y1156D01*
X259423Y134226D02*
X269423D01*
Y194226D01*
X259423D01*
Y134226D01*
X270250Y189226D02*
X274974Y193951D01*
Y184502D01*
X270250Y189226D01*
G36*
X270250Y189226D02*
X274974Y193951D01*
Y184502D01*
X270250Y189226D01*
G37*
X291237Y82264D02*
G75*
G03*
Y107212I0J12474D01*
G01*
G75*
G03*
Y82264I0J-12474D01*
G01*
X291631Y55886D02*
G75*
G03*
Y80834I0J12474D01*
G01*
G75*
G03*
Y55886I0J-12474D01*
G01*
X294302Y233196D02*
G75*
G03*
Y208248I0J-12474D01*
G01*
G75*
G03*
Y233196I0J12474D01*
G01*
Y263118D02*
G75*
G03*
Y238170I0J-12474D01*
G01*
G75*
G03*
Y263118I0J12474D01*
G01*
X315211Y250D02*
Y59305D01*
Y216785D02*
X393951D01*
X315211Y275447D02*
Y216785D01*
X339659Y118242D02*
Y108242D01*
X379659D01*
Y118242D01*
X339659D01*
X374659Y92809D02*
G75*
G03*
Y62809I0J-15000D01*
G01*
G75*
G03*
Y92809I0J15000D01*
G01*
Y212888D02*
G75*
G03*
Y182888I0J-15000D01*
G01*
G75*
G03*
Y212888I0J15000D01*
G01*
X393951Y59305D02*
X315211D01*
X393951Y216785D02*
Y59305D01*
D02*
D11*
X51037Y88734D02*
Y94640D01*
X53498Y91687D01*
X55959Y94640D01*
Y88734D01*
X59896D02*
X61864D01*
X60880D02*
Y94640D01*
X59896Y93656D01*
X67179Y202809D02*
X56156D01*
Y194541D01*
X67179D01*
Y212652D02*
X56156D01*
Y204384D01*
X67179D01*
X79581Y176333D02*
Y174561D01*
X68163D01*
Y176333D01*
X79581D01*
X79778Y181844D02*
Y177711D01*
X89485Y240407D02*
Y267967D01*
X116392D01*
Y240407D01*
X89485D01*
X94738Y271411D02*
X98675D01*
X96707Y269443D02*
Y273380D01*
X104052Y19935D02*
Y47494D01*
X146707D01*
Y19935D01*
X104052D01*
X108518Y271411D02*
X112455D01*
X117967Y3301D02*
Y9207D01*
X121411D01*
X122396Y8715D01*
X122888Y7730D01*
X122396Y6746D01*
X121411Y6254D01*
X117967D01*
X121411D02*
X122888Y3301D01*
X125841D02*
Y9207D01*
Y6254D02*
X130762D01*
Y3301D02*
Y9207D01*
X151037Y225939D02*
Y221805D01*
X152612Y240014D02*
Y234502D01*
X171510Y240014D02*
Y234502D01*
X223872Y221608D02*
Y217474D01*
X224659Y232927D02*
Y227415D01*
X243557Y232927D02*
Y227415D01*
X269800Y19935D02*
Y47494D01*
X312455D01*
Y19935D01*
X269800D01*
X275053Y15900D02*
X278990D01*
Y2120D02*
Y8026D01*
X283911D01*
X282927Y5073D02*
X278990D01*
X286864Y2120D02*
X289325Y8026D01*
X291785Y2120D01*
X287848Y4581D02*
X290801D01*
X294738Y2120D02*
Y8026D01*
X299659Y2120D01*
Y8026D01*
X290900Y11963D02*
Y17868D01*
X288439D02*
X293360D01*
X302612Y15900D02*
X306549D01*
X304581Y13931D02*
Y17868D01*
D02*
D12*
X8396Y175821D02*
X5996D01*
X10396D02*
Y179758D01*
X16796D01*
Y175821D01*
X18796D02*
X21196D01*
X23085Y169435D02*
X23378Y169142D01*
X23966Y168848D01*
X24554Y169142D01*
X24847Y169435D01*
Y172373D01*
X25435D01*
X24847D02*
X23672D01*
X28372Y168848D02*
X29547D01*
X28960D02*
Y172373D01*
X28372Y171785D01*
X33321Y207037D02*
Y210562D01*
X35377D01*
X35965Y210268D01*
X36258Y209681D01*
X35965Y209093D01*
X35377Y208799D01*
X33321D01*
X35377D02*
X36258Y207037D01*
X39490D02*
Y210562D01*
X38021Y208212D01*
X40371D01*
X41589Y190895D02*
Y194420D01*
X43645D01*
X44232Y194126D01*
X44526Y193539D01*
X44232Y192951D01*
X43645Y192657D01*
X41589D01*
X43645D02*
X44526Y190895D01*
X48639D02*
X46289D01*
X48345Y192951D01*
X48639Y193539D01*
X48345Y194126D01*
X47757Y194420D01*
X46876D01*
X46289Y194126D01*
X53339Y190895D02*
X50989D01*
X53045Y192951D01*
X53339Y193539D01*
X53045Y194126D01*
X52457Y194420D01*
X51576D01*
X50989Y194126D01*
X57730Y174747D02*
Y175922D01*
X58024Y176510D01*
X58318Y176804D01*
X58906Y177097D01*
X59493D01*
X60080Y176804D01*
X60374Y176510D01*
X60668Y175922D01*
Y174747D01*
X60374Y174160D01*
X60080Y173866D01*
X59493Y173572D01*
X58906D01*
X58318Y173866D01*
X58024Y174160D01*
X57730Y174747D01*
X59787Y174454D02*
X60668Y173572D01*
X64780D02*
X62430D01*
X64487Y175628D01*
X64780Y176216D01*
X64487Y176804D01*
X63899Y177097D01*
X63018D01*
X62430Y176804D01*
X58124Y160486D02*
X52219D01*
Y97494D01*
X58124D01*
Y160486D01*
G36*
X58124Y160486D02*
X52219D01*
Y97494D01*
X58124D01*
Y160486D01*
G37*
X20722D01*
Y97494D01*
X58124D01*
Y160486D01*
X62061Y186958D02*
Y190483D01*
X64117D01*
X64705Y190189D01*
X64998Y189602D01*
X64705Y189014D01*
X64117Y188720D01*
X62061D01*
X64117D02*
X64998Y186958D01*
X67348D02*
X68524D01*
X67936D02*
Y190483D01*
X67348Y189896D01*
X72342Y186958D02*
X72930Y187252D01*
X73517Y187839D01*
X73811Y188720D01*
Y189602D01*
X73517Y190189D01*
X72930Y190483D01*
X72342D01*
X71755Y190189D01*
X71461Y189602D01*
X71755Y189014D01*
X72342Y188720D01*
X72930D01*
X73517Y189014D01*
X73811Y189602D01*
X71510Y200719D02*
Y197194D01*
X74447D01*
X76210D02*
Y200719D01*
X79147D01*
X78560Y198957D02*
X76210D01*
Y197194D02*
X79147D01*
X80910D02*
Y200719D01*
X82672D01*
X83260Y200426D01*
X83554Y200132D01*
X83847Y199544D01*
Y198369D01*
X83554Y197782D01*
X83260Y197488D01*
X82672Y197194D01*
X80910D01*
X87960D02*
X85610D01*
X87666Y199250D01*
X87960Y199838D01*
X87666Y200426D01*
X87079Y200719D01*
X86197D01*
X85610Y200426D01*
X71510Y210956D02*
Y207430D01*
X74447D01*
X76210D02*
Y210956D01*
X79147D01*
X78560Y209193D02*
X76210D01*
Y207430D02*
X79147D01*
X80910D02*
Y210956D01*
X82672D01*
X83260Y210662D01*
X83554Y210368D01*
X83847Y209780D01*
Y208606D01*
X83554Y208018D01*
X83260Y207724D01*
X82672Y207430D01*
X80910D01*
X86197D02*
X87372D01*
X86785D02*
Y210956D01*
X86197Y210368D01*
X80959Y253687D02*
X81252Y253394D01*
X81840Y253100D01*
X82428Y253394D01*
X82721Y253687D01*
Y256625D01*
X83309D01*
X82721D02*
X81546D01*
X87128Y253100D02*
Y256625D01*
X85659Y254275D01*
X88009D01*
X83321Y231446D02*
Y234971D01*
X85083D01*
X85671Y234678D01*
X85965Y234384D01*
X86258Y233796D01*
Y232621D01*
X85965Y232034D01*
X85671Y231740D01*
X85083Y231446D01*
X83321D01*
X88608D02*
X89783D01*
X89196D02*
Y234971D01*
X88608Y234384D01*
X93345Y58806D02*
X93051Y58512D01*
X92464Y58218D01*
X91583D01*
X90995Y58512D01*
X90701Y58806D01*
X90407Y59393D01*
Y60568D01*
X90701Y61156D01*
X90995Y61449D01*
X91583Y61743D01*
X92464D01*
X93051Y61449D01*
X93345Y61156D01*
X95107Y58218D02*
X97457Y61743D01*
X95107D01*
X95526Y32034D02*
X95819Y31740D01*
X96407Y31446D01*
X96994Y31740D01*
X97288Y32034D01*
Y34971D01*
X97876D01*
X97288D02*
X96113D01*
X100226Y32328D02*
X100519Y32915D01*
X101107Y33209D01*
X101694D01*
X102282Y32915D01*
X102576Y32328D01*
X102282Y31740D01*
X101694Y31446D01*
X101107D01*
X100519Y31740D01*
X100226Y32328D01*
Y33209D01*
X100519Y34090D01*
X101107Y34678D01*
X101694Y34971D01*
X95038Y78596D02*
X91513D01*
Y80653D01*
X91807Y81240D01*
X92394Y81534D01*
X92982Y81240D01*
X93276Y80653D01*
Y78596D01*
Y80653D02*
X95038Y81534D01*
Y83884D02*
Y85059D01*
Y84472D02*
X91513D01*
X92100Y83884D01*
X94157Y87996D02*
X93569Y88290D01*
X93276Y88878D01*
Y89465D01*
X93569Y90053D01*
X94157Y90346D01*
X94744Y90053D01*
X95038Y89465D01*
Y88878D01*
X94744Y88290D01*
X94157Y87996D01*
X93276D01*
X92394Y88290D01*
X91807Y88878D01*
X91513Y89465D01*
X95356Y150194D02*
X95650Y149900D01*
X95944Y149313D01*
Y148432D01*
X95650Y147844D01*
X95356Y147550D01*
X94769Y147257D01*
X93594D01*
X93006Y147550D01*
X92712Y147844D01*
X92419Y148432D01*
Y149313D01*
X92712Y149900D01*
X93006Y150194D01*
X95944Y152544D02*
Y153719D01*
Y153132D02*
X92419D01*
X93006Y152544D01*
X97394Y14024D02*
X97981Y13730D01*
X98569D01*
X99157Y14024D01*
X99450Y14611D01*
X99157Y15198D01*
X98569Y15492D01*
X97981D01*
X98569D02*
X99157Y15786D01*
X99450Y16374D01*
X99157Y16961D01*
X98569Y17255D01*
X97981D01*
X97394Y16961D01*
X102094Y13730D02*
X102388Y14024D01*
X102094Y14317D01*
X101800Y14024D01*
X102094Y13730D01*
X106794Y14024D02*
X107381Y13730D01*
X107969D01*
X108557Y14024D01*
X108850Y14611D01*
X108557Y15198D01*
X107969Y15492D01*
X107381D01*
X107969D02*
X108557Y15786D01*
X108850Y16374D01*
X108557Y16961D01*
X107969Y17255D01*
X107381D01*
X106794Y16961D01*
X111200Y17255D02*
X112669Y13730D01*
X114138Y17255D01*
X100825Y222979D02*
X100531Y222685D01*
X99944Y222391D01*
X99063D01*
X98475Y222685D01*
X98181Y222979D01*
X97888Y223566D01*
Y224741D01*
X98181Y225329D01*
X98475Y225622D01*
X99063Y225916D01*
X99944D01*
X100531Y225622D01*
X100825Y225329D01*
X103175Y222391D02*
X104350D01*
X103763D02*
Y225916D01*
X103175Y225329D01*
X107288Y222685D02*
X107875Y222391D01*
X108757D01*
X109344Y222685D01*
X109638Y223272D01*
Y223566D01*
X109344Y224154D01*
X108757Y224447D01*
X107288D01*
Y225916D01*
X109638D01*
X99487Y178596D02*
X95962D01*
Y180653D01*
X96256Y181240D01*
X96843Y181534D01*
X97431Y181240D01*
X97725Y180653D01*
Y178596D01*
Y180653D02*
X99487Y181534D01*
Y183884D02*
Y185059D01*
Y184472D02*
X95962D01*
X96550Y183884D01*
X99487Y187996D02*
X95962Y190346D01*
Y187996D01*
X102125Y78596D02*
X98600D01*
Y80653D01*
X98893Y81240D01*
X99481Y81534D01*
X100069Y81240D01*
X100362Y80653D01*
Y78596D01*
Y80653D02*
X102125Y81534D01*
Y83884D02*
Y85059D01*
Y84472D02*
X98600D01*
X99187Y83884D01*
X101831Y87996D02*
X102125Y88584D01*
Y89465D01*
X101831Y90053D01*
X101243Y90346D01*
X100950D01*
X100362Y90053D01*
X100069Y89465D01*
Y87996D01*
X98600D01*
Y90346D01*
X106156Y66467D02*
Y63824D01*
X106449Y63236D01*
X107037Y62942D01*
X108212D01*
X108799Y63236D01*
X109093Y63824D01*
Y66467D01*
X113206Y62942D02*
X110856D01*
X112912Y64998D01*
X113206Y65586D01*
X112912Y66174D01*
X112324Y66467D01*
X111443D01*
X110856Y66174D01*
X106968Y178596D02*
X103443D01*
Y180653D01*
X103737Y181240D01*
X104324Y181534D01*
X104912Y181240D01*
X105206Y180653D01*
Y178596D01*
Y180653D02*
X106968Y181534D01*
Y183884D02*
Y185059D01*
Y184472D02*
X103443D01*
X104030Y183884D01*
X106674Y188290D02*
X106968Y188878D01*
Y189465D01*
X106674Y190053D01*
X106087Y190346D01*
X105499Y190053D01*
X105206Y189465D01*
Y188878D01*
Y189465D02*
X104912Y190053D01*
X104324Y190346D01*
X103737Y190053D01*
X103443Y189465D01*
Y188878D01*
X103737Y188290D01*
X114266Y57317D02*
Y72317D01*
X134266D01*
Y57317D01*
X114266D01*
X114423Y50737D02*
Y54263D01*
X116480D01*
X117067Y53969D01*
X117361Y53381D01*
X117067Y52794D01*
X116480Y52500D01*
X114423D01*
X116480D02*
X117361Y50737D01*
X120004D02*
X120592Y51031D01*
X121180Y51619D01*
X121473Y52500D01*
Y53381D01*
X121180Y53969D01*
X120592Y54263D01*
X120004D01*
X119417Y53969D01*
X119123Y53381D01*
X119417Y52794D01*
X120004Y52500D01*
X120592D01*
X121180Y52794D01*
X121473Y53381D01*
X113467Y181928D02*
X113760Y181634D01*
X114054Y181046D01*
Y180165D01*
X113760Y179578D01*
X113467Y179284D01*
X112879Y178990D01*
X111704D01*
X111117Y179284D01*
X110823Y179578D01*
X110529Y180165D01*
Y181046D01*
X110823Y181634D01*
X111117Y181928D01*
X114054Y184278D02*
Y185453D01*
Y184865D02*
X110529D01*
X111117Y184278D01*
X113173Y188390D02*
X112585Y188684D01*
X112292Y189271D01*
Y189859D01*
X112585Y190446D01*
X113173Y190740D01*
X113760Y190446D01*
X114054Y189859D01*
Y189271D01*
X113760Y188684D01*
X113173Y188390D01*
X112292D01*
X111410Y188684D01*
X110823Y189271D01*
X110529Y189859D01*
X117573Y17255D02*
X119042Y13730D01*
X120510Y17255D01*
X122273Y13730D02*
Y17255D01*
X124329D01*
X124917Y16961D01*
X125210Y16374D01*
X124917Y15786D01*
X124329Y15492D01*
X122273D01*
X124329D02*
X125210Y13730D01*
X126973D02*
Y17255D01*
Y15492D02*
X129910D01*
Y13730D02*
Y17255D01*
X123085Y214517D02*
Y218042D01*
X125141D01*
X125728Y217748D01*
X126022Y217161D01*
X125728Y216573D01*
X125141Y216280D01*
X123085D01*
X125141D02*
X126022Y214517D01*
X127785D02*
X130135Y218042D01*
X127785D01*
X126234Y227509D02*
Y231034D01*
X128291D01*
X128878Y230741D01*
X129172Y230153D01*
X128878Y229565D01*
X128291Y229272D01*
X126234D01*
X128291D02*
X129172Y227509D01*
X131228Y227803D02*
X131815Y227509D01*
X132403D01*
X132991Y227803D01*
X133284Y228391D01*
X132991Y228978D01*
X132403Y229272D01*
X131815D01*
X132403D02*
X132991Y229565D01*
X133284Y230153D01*
X132991Y230741D01*
X132403Y231034D01*
X131815D01*
X131228Y230741D01*
X125278Y205706D02*
X125571Y205412D01*
X125865Y204825D01*
Y203944D01*
X125571Y203356D01*
X125278Y203062D01*
X124690Y202769D01*
X123515D01*
X122928Y203062D01*
X122634Y203356D01*
X122340Y203944D01*
Y204825D01*
X122634Y205412D01*
X122928Y205706D01*
X125571Y207469D02*
X125865Y208056D01*
Y208937D01*
X125571Y209525D01*
X124984Y209819D01*
X124690D01*
X124103Y209525D01*
X123809Y208937D01*
Y207469D01*
X122340D01*
Y209819D01*
X132531Y58425D02*
G75*
G03*
X133425I447J0D01*
G01*
G75*
G03*
X132531I-447J0D01*
G01*
X131577Y205706D02*
X131871Y205412D01*
X132165Y204825D01*
Y203944D01*
X131871Y203356D01*
X131577Y203062D01*
X130990Y202769D01*
X129815D01*
X129227Y203062D01*
X128933Y203356D01*
X128640Y203944D01*
Y204825D01*
X128933Y205412D01*
X129227Y205706D01*
X131283Y207469D02*
X130696Y207762D01*
X130402Y208350D01*
Y208937D01*
X130696Y209525D01*
X131283Y209819D01*
X131871Y209525D01*
X132165Y208937D01*
Y208350D01*
X131871Y207762D01*
X131283Y207469D01*
X130402D01*
X129521Y207762D01*
X128933Y208350D01*
X128640Y208937D01*
X135289Y236170D02*
Y239696D01*
X137346D01*
X137933Y239402D01*
X138227Y238815D01*
X137933Y238227D01*
X137346Y237933D01*
X135289D01*
X137346D02*
X138227Y236170D01*
X139989Y237052D02*
X140283Y237639D01*
X140870Y237933D01*
X141458D01*
X142046Y237639D01*
X142339Y237052D01*
X142046Y236465D01*
X141458Y236170D01*
X140870D01*
X140283Y236465D01*
X139989Y237052D01*
Y237933D01*
X140283Y238815D01*
X140870Y239402D01*
X141458Y239696D01*
X135977Y14024D02*
X136564Y13730D01*
X137152D01*
X137739Y14024D01*
X138033Y14611D01*
Y16374D01*
X137739Y16961D01*
X137152Y17255D01*
X136564D01*
X135977Y16961D01*
X135683Y16374D01*
Y14611D01*
X135977Y14024D01*
X137739Y16961D01*
X140383Y17255D02*
X141852Y13730D01*
X143320Y17255D01*
X143345Y267467D02*
X143051Y267173D01*
X142464Y266879D01*
X141583D01*
X140995Y267173D01*
X140701Y267467D01*
X140407Y268054D01*
Y269229D01*
X140701Y269817D01*
X140995Y270111D01*
X141583Y270404D01*
X142464D01*
X143051Y270111D01*
X143345Y269817D01*
X145401Y267173D02*
X145989Y266879D01*
X146576D01*
X147164Y267173D01*
X147457Y267761D01*
X147164Y268348D01*
X146576Y268642D01*
X145989D01*
X146576D02*
X147164Y268935D01*
X147457Y269523D01*
X147164Y270111D01*
X146576Y270404D01*
X145989D01*
X145401Y270111D01*
X145707Y215892D02*
X145413Y215598D01*
X144826Y215304D01*
X143945D01*
X143357Y215598D01*
X143063Y215892D01*
X142770Y216480D01*
Y217654D01*
X143063Y218242D01*
X143357Y218536D01*
X143945Y218830D01*
X144826D01*
X145413Y218536D01*
X145707Y218242D01*
X148351Y217067D02*
X148939D01*
X149526Y217361D01*
X149820Y217948D01*
X149526Y218536D01*
X148939Y218830D01*
X148351D01*
X147763Y218536D01*
X147470Y217948D01*
X147763Y217361D01*
X148351Y217067D01*
X147763Y216773D01*
X147470Y216186D01*
X147763Y215598D01*
X148351Y215304D01*
X148939D01*
X149526Y215598D01*
X149820Y216186D01*
X149526Y216773D01*
X148939Y217067D01*
X145526Y203887D02*
Y207412D01*
X147582D01*
X148169Y207119D01*
X148463Y206531D01*
X148169Y205943D01*
X147582Y205650D01*
X145526D01*
X147582D02*
X148463Y203887D01*
X150226Y204181D02*
X150813Y203887D01*
X151694D01*
X152282Y204181D01*
X152576Y204769D01*
Y205062D01*
X152282Y205650D01*
X151694Y205943D01*
X150226D01*
Y207412D01*
X152576D01*
X149643Y57624D02*
X149349Y57331D01*
X148762Y57037D01*
X147881D01*
X147293Y57331D01*
X146999Y57624D01*
X146706Y58212D01*
Y59387D01*
X146999Y59974D01*
X147293Y60268D01*
X147881Y60562D01*
X148762D01*
X149349Y60268D01*
X149643Y59974D01*
X151993Y57037D02*
X153168D01*
X152581D02*
Y60562D01*
X151993Y59974D01*
X157574Y57037D02*
Y60562D01*
X156106Y58212D01*
X158456D01*
X147100Y51131D02*
Y54656D01*
X149157D01*
X149744Y54363D01*
X150038Y53775D01*
X149744Y53187D01*
X149157Y52894D01*
X147100D01*
X149157D02*
X150038Y51131D01*
X154150D02*
X151800D01*
X153857Y53187D01*
X154150Y53775D01*
X153857Y54363D01*
X153269Y54656D01*
X152388D01*
X151800Y54363D01*
X156794Y51425D02*
X157381Y51131D01*
X157969D01*
X158557Y51425D01*
X158850Y52013D01*
Y53775D01*
X158557Y54363D01*
X157969Y54656D01*
X157381D01*
X156794Y54363D01*
X156500Y53775D01*
Y52013D01*
X156794Y51425D01*
X158557Y54363D01*
X153100Y43163D02*
X156625D01*
Y41107D01*
X156331Y40520D01*
X155744Y40226D01*
X155156Y40520D01*
X154862Y41107D01*
Y43163D01*
Y41107D02*
X153100Y40226D01*
Y36113D02*
Y38463D01*
X155156Y36407D01*
X155744Y36113D01*
X156331Y36407D01*
X156625Y36994D01*
Y37876D01*
X156331Y38463D01*
X153100Y33176D02*
Y32001D01*
Y32588D02*
X156625D01*
X156037Y33176D01*
X158124Y192470D02*
Y195995D01*
X160180D01*
X160768Y195701D01*
X161061Y195114D01*
X160768Y194526D01*
X160180Y194232D01*
X158124D01*
X160180D02*
X161061Y192470D01*
X165174D02*
X162824D01*
X164880Y194526D01*
X165174Y195114D01*
X164880Y195701D01*
X164293Y195995D01*
X163411D01*
X162824Y195701D01*
X161986Y140013D02*
X164630D01*
X165217Y140306D01*
X165511Y140894D01*
Y142069D01*
X165217Y142656D01*
X164630Y142950D01*
X161986D01*
X165511Y145300D02*
Y146475D01*
Y145888D02*
X161986D01*
X162573Y145300D01*
X168115Y106568D02*
Y105393D01*
Y105980D02*
X171641D01*
X171053Y106568D01*
X169647Y162636D02*
X169941Y162343D01*
X170235Y161755D01*
Y160874D01*
X169941Y160286D01*
X169647Y159993D01*
X169060Y159699D01*
X167885D01*
X167297Y159993D01*
X167004Y160286D01*
X166710Y160874D01*
Y161755D01*
X167004Y162343D01*
X167297Y162636D01*
X170235Y166749D02*
Y164399D01*
X168179Y166455D01*
X167591Y166749D01*
X167004Y166455D01*
X166710Y165868D01*
Y164986D01*
X167004Y164399D01*
X177641Y99656D02*
X174115Y98187D01*
X177641Y96718D01*
X174703Y92018D02*
X174409Y92312D01*
X174115Y92899D01*
Y93780D01*
X174409Y94368D01*
X174703Y94662D01*
X175291Y94956D01*
X176465D01*
X177053Y94662D01*
X177347Y94368D01*
X177641Y93780D01*
Y92899D01*
X177347Y92312D01*
X177053Y92018D01*
X174703Y87318D02*
X174409Y87612D01*
X174115Y88199D01*
Y89080D01*
X174409Y89668D01*
X174703Y89962D01*
X175291Y90256D01*
X176465D01*
X177053Y89962D01*
X177347Y89668D01*
X177641Y89080D01*
Y88199D01*
X177347Y87612D01*
X177053Y87318D01*
X181746Y235383D02*
Y238908D01*
X183802D01*
X184390Y238615D01*
X184683Y238027D01*
X184390Y237439D01*
X183802Y237146D01*
X181746D01*
X183802D02*
X184683Y235383D01*
X187033D02*
X188209D01*
X187621D02*
Y238908D01*
X187033Y238321D01*
X186084Y97599D02*
Y96718D01*
X185791D01*
X185203Y97012D01*
X184909Y97306D01*
X184615Y97893D01*
Y98480D01*
X184909Y99068D01*
X185203Y99362D01*
X185791Y99656D01*
X186965D01*
X187553Y99362D01*
X187847Y99068D01*
X188141Y98480D01*
Y97893D01*
X187847Y97306D01*
X187553Y97012D01*
X186965Y96718D01*
X184615Y94956D02*
X188141D01*
X184615Y92018D01*
X188141D01*
X184615Y90256D02*
X188141D01*
Y88493D01*
X187847Y87906D01*
X187553Y87612D01*
X186965Y87318D01*
X185791D01*
X185203Y87612D01*
X184909Y87906D01*
X184615Y88493D01*
Y90256D01*
X189408Y224947D02*
X189114Y224654D01*
X188527Y224359D01*
X187646D01*
X187058Y224654D01*
X186764Y224947D01*
X186470Y225535D01*
Y226709D01*
X186764Y227297D01*
X187058Y227591D01*
X187646Y227885D01*
X188527D01*
X189114Y227591D01*
X189408Y227297D01*
X192639Y224359D02*
Y227885D01*
X191170Y225535D01*
X193520D01*
X192376Y208611D02*
Y212137D01*
X194432D01*
X195020Y211843D01*
X195313Y211256D01*
X195020Y210668D01*
X194432Y210374D01*
X192376D01*
X194432D02*
X195313Y208611D01*
X198545D02*
Y212137D01*
X197076D02*
X200013D01*
X202363Y208611D02*
X203539D01*
X202951D02*
Y212137D01*
X202363Y211549D01*
X194909Y99362D02*
X194615Y98774D01*
Y98187D01*
X194909Y97599D01*
X195497Y97306D01*
X196084Y97599D01*
X196378Y98187D01*
Y98774D01*
Y98187D02*
X196672Y97599D01*
X197259Y97306D01*
X197847Y97599D01*
X198141Y98187D01*
Y98774D01*
X197847Y99362D01*
X198141Y94956D02*
X194615Y93487D01*
X198141Y92018D01*
X194909Y89962D02*
X194615Y89374D01*
Y88787D01*
X194909Y88199D01*
X195497Y87906D01*
X196084Y88199D01*
X196378Y88787D01*
Y89374D01*
Y88787D02*
X196672Y88199D01*
X197259Y87906D01*
X197847Y88199D01*
X198141Y88787D01*
Y89374D01*
X197847Y89962D01*
X200915Y253337D02*
Y250694D01*
X201209Y250106D01*
X201796Y249812D01*
X202972D01*
X203559Y250106D01*
X203853Y250694D01*
Y253337D01*
X205909Y250106D02*
X206496Y249812D01*
X207084D01*
X207672Y250106D01*
X207965Y250694D01*
X207672Y251281D01*
X207084Y251575D01*
X206496D01*
X207084D02*
X207672Y251869D01*
X207965Y252456D01*
X207672Y253044D01*
X207084Y253337D01*
X206496D01*
X205909Y253044D01*
X202703Y68718D02*
X202409Y69012D01*
X202115Y69599D01*
Y70480D01*
X202409Y71068D01*
X202703Y71362D01*
X203291Y71656D01*
X204465D01*
X205053Y71362D01*
X205347Y71068D01*
X205641Y70480D01*
Y69599D01*
X205347Y69012D01*
X205053Y68718D01*
X202703Y66956D02*
X202409Y66662D01*
X202115Y66074D01*
X202409Y65487D01*
X202703Y65193D01*
X205641D01*
Y64606D01*
Y65193D02*
Y66368D01*
X202115Y62256D02*
X205641D01*
X203878Y60787D01*
X205641Y59318D01*
X202115D01*
X202703Y54618D02*
X202409Y54912D01*
X202115Y55499D01*
Y56380D01*
X202409Y56968D01*
X202703Y57262D01*
X203291Y57556D01*
X204465D01*
X205053Y57262D01*
X205347Y56968D01*
X205641Y56380D01*
Y55499D01*
X205347Y54912D01*
X205053Y54618D01*
X205641Y52856D02*
X202997D01*
X202409Y52562D01*
X202115Y51974D01*
Y50799D01*
X202409Y50212D01*
X202997Y49918D01*
X205641D01*
X203291Y48156D02*
Y45806D01*
X202409Y43162D02*
X202115Y42574D01*
Y41987D01*
X202409Y41399D01*
X202997Y41106D01*
X203584Y41399D01*
X203878Y41987D01*
Y42574D01*
Y41987D02*
X204172Y41399D01*
X204759Y41106D01*
X205347Y41399D01*
X205641Y41987D01*
Y42574D01*
X205347Y43162D01*
X202115Y38168D02*
Y36993D01*
Y37580D02*
X205641D01*
X205053Y38168D01*
X203878Y33174D02*
Y32587D01*
X204172Y31999D01*
X204759Y31706D01*
X205347Y31999D01*
X205641Y32587D01*
Y33174D01*
X205347Y33762D01*
X204759Y34056D01*
X204172Y33762D01*
X203878Y33174D01*
X203584Y33762D01*
X202997Y34056D01*
X202409Y33762D01*
X202115Y33174D01*
Y32587D01*
X202409Y31999D01*
X202997Y31706D01*
X203584Y31999D01*
X203878Y32587D01*
X202997Y29356D02*
X203584Y29062D01*
X203878Y28474D01*
Y27887D01*
X203584Y27299D01*
X202997Y27006D01*
X202409Y27299D01*
X202115Y27887D01*
Y28474D01*
X202409Y29062D01*
X202997Y29356D01*
X203878D01*
X204759Y29062D01*
X205347Y28474D01*
X205641Y27887D01*
X202409Y24656D02*
X202115Y24068D01*
Y23187D01*
X202409Y22599D01*
X202997Y22306D01*
X203291D01*
X203878Y22599D01*
X204172Y23187D01*
Y24656D01*
X205641D01*
Y22306D01*
X204115Y99156D02*
X207641D01*
Y97393D01*
X207347Y96806D01*
X207053Y96512D01*
X206465Y96218D01*
X205291D01*
X204703Y96512D01*
X204409Y96806D01*
X204115Y97393D01*
Y99156D01*
Y94456D02*
X207641D01*
Y92399D01*
X207347Y91812D01*
X206759Y91518D01*
X206172Y91812D01*
X205878Y92399D01*
Y94456D01*
Y92399D02*
X204115Y91518D01*
Y88287D02*
X205878D01*
X207641Y89756D01*
X205878Y88287D02*
X207641Y86818D01*
X212115Y71154D02*
X215640D01*
X213878Y69685D01*
X215640Y68217D01*
X212115D01*
Y64104D02*
Y66454D01*
X214171Y64398D01*
X214759Y64104D01*
X215346Y64398D01*
X215640Y64985D01*
Y65867D01*
X215346Y66454D01*
X215497Y99156D02*
X214909Y98862D01*
X214615Y98274D01*
Y97099D01*
X214909Y96512D01*
X215497Y96218D01*
X216084Y96512D01*
X216378Y97099D01*
Y98274D01*
X216672Y98862D01*
X217259Y99156D01*
X217847Y98862D01*
X218141Y98274D01*
Y97099D01*
X217847Y96512D01*
X217259Y96218D01*
X214615Y94456D02*
X218141D01*
Y92693D01*
X217847Y92106D01*
X217553Y91812D01*
X216965Y91518D01*
X215791D01*
X215203Y91812D01*
X214909Y92106D01*
X214615Y92693D01*
Y94456D01*
Y88874D02*
Y87699D01*
Y88287D02*
X218141D01*
Y88874D02*
Y87699D01*
X218754Y236170D02*
Y239696D01*
X220810D01*
X221398Y239402D01*
X221691Y238815D01*
X221398Y238227D01*
X220810Y237933D01*
X218754D01*
X220810D02*
X221691Y236170D01*
X224041D02*
X225217D01*
X224629D02*
Y239696D01*
X224041Y239108D01*
X229035Y237933D02*
X229623D01*
X230210Y238227D01*
X230504Y238815D01*
X230210Y239402D01*
X229623Y239696D01*
X229035D01*
X228448Y239402D01*
X228154Y238815D01*
X228448Y238227D01*
X229035Y237933D01*
X228448Y237639D01*
X228154Y237052D01*
X228448Y236465D01*
X229035Y236170D01*
X229623D01*
X230210Y236465D01*
X230504Y237052D01*
X230210Y237639D01*
X229623Y237933D01*
X225203Y96218D02*
X224909Y96512D01*
X224615Y97099D01*
Y97980D01*
X224909Y98568D01*
X225203Y98862D01*
X225791Y99156D01*
X226965D01*
X227553Y98862D01*
X227847Y98568D01*
X228141Y97980D01*
Y97099D01*
X227847Y96512D01*
X227553Y96218D01*
X228141Y94456D02*
X224615D01*
Y91518D01*
Y89756D02*
X228141D01*
X226378D02*
Y88874D01*
X228141Y86818D01*
X226378Y88874D02*
X224615Y86818D01*
X223872Y204674D02*
Y208200D01*
X225928D01*
X226516Y207906D01*
X226809Y207319D01*
X226516Y206731D01*
X225928Y206437D01*
X223872D01*
X225928D02*
X226809Y204674D01*
X229159D02*
X230335D01*
X229747D02*
Y208200D01*
X229159Y207612D01*
X234741Y204674D02*
Y208200D01*
X233272Y205850D01*
X235622D01*
X234290Y217861D02*
X233996Y217567D01*
X233409Y217273D01*
X232528D01*
X231940Y217567D01*
X231646Y217861D01*
X231352Y218448D01*
Y219623D01*
X231646Y220211D01*
X231940Y220504D01*
X232528Y220798D01*
X233409D01*
X233996Y220504D01*
X234290Y220211D01*
X236640Y217273D02*
X237815D01*
X237228D02*
Y220798D01*
X236640Y220211D01*
X241046Y217567D02*
X241633Y217273D01*
X242221D01*
X242809Y217567D01*
X243102Y218154D01*
X242809Y218742D01*
X242221Y219035D01*
X241633D01*
X242221D02*
X242809Y219329D01*
X243102Y219917D01*
X242809Y220504D01*
X242221Y220798D01*
X241633D01*
X241046Y220504D01*
X235203Y96218D02*
X234909Y96512D01*
X234615Y97099D01*
Y97980D01*
X234909Y98568D01*
X235203Y98862D01*
X235791Y99156D01*
X236965D01*
X237553Y98862D01*
X237847Y98568D01*
X238141Y97980D01*
Y97099D01*
X237847Y96512D01*
X237553Y96218D01*
X235497Y94456D02*
X234909Y94162D01*
X234615Y93574D01*
Y92399D01*
X234909Y91812D01*
X235497Y91518D01*
X236084Y91812D01*
X236378Y92399D01*
Y93574D01*
X236672Y94162D01*
X237259Y94456D01*
X237847Y94162D01*
X238141Y93574D01*
Y92399D01*
X237847Y91812D01*
X237259Y91518D01*
X245497Y99156D02*
X244909Y98862D01*
X244615Y98274D01*
Y97099D01*
X244909Y96512D01*
X245497Y96218D01*
X246084Y96512D01*
X246378Y97099D01*
Y98274D01*
X246672Y98862D01*
X247259Y99156D01*
X247847Y98862D01*
X248141Y98274D01*
Y97099D01*
X247847Y96512D01*
X247259Y96218D01*
X244615Y94456D02*
X248141D01*
Y92693D01*
X247847Y92106D01*
X247553Y91812D01*
X246965Y91518D01*
X245791D01*
X245203Y91812D01*
X244909Y92106D01*
X244615Y92693D01*
Y94456D01*
X245791Y89756D02*
X246965D01*
X247553Y89462D01*
X247847Y89168D01*
X248141Y88580D01*
Y87993D01*
X247847Y87406D01*
X247553Y87112D01*
X246965Y86818D01*
X245791D01*
X245203Y87112D01*
X244909Y87406D01*
X244615Y87993D01*
Y88580D01*
X244909Y89168D01*
X245203Y89462D01*
X245791Y89756D01*
X252878Y106774D02*
Y106187D01*
X253172Y105599D01*
X253759Y105306D01*
X254347Y105599D01*
X254641Y106187D01*
Y106774D01*
X254347Y107362D01*
X253759Y107656D01*
X253172Y107362D01*
X252878Y106774D01*
X252584Y107362D01*
X251997Y107656D01*
X251409Y107362D01*
X251115Y106774D01*
Y106187D01*
X251409Y105599D01*
X251997Y105306D01*
X252584Y105599D01*
X252878Y106187D01*
X253793Y228296D02*
Y231822D01*
X255850D01*
X256437Y231528D01*
X256731Y230941D01*
X256437Y230353D01*
X255850Y230059D01*
X253793D01*
X255850D02*
X256731Y228296D01*
X259374Y230059D02*
X259962D01*
X260550Y230353D01*
X260843Y230941D01*
X260550Y231528D01*
X259962Y231822D01*
X259374D01*
X258787Y231528D01*
X258493Y230941D01*
X258787Y230353D01*
X259374Y230059D01*
X258787Y229765D01*
X258493Y229178D01*
X258787Y228591D01*
X259374Y228296D01*
X259962D01*
X260550Y228591D01*
X260843Y229178D01*
X260550Y229765D01*
X259962Y230059D01*
X260407Y196601D02*
X260701Y196307D01*
X261289Y196013D01*
X261876Y196307D01*
X262170Y196601D01*
Y199538D01*
X262757D01*
X262170D02*
X260995D01*
X267457Y196013D02*
X265107D01*
X267164Y198069D01*
X267457Y198657D01*
X267164Y199244D01*
X266576Y199538D01*
X265695D01*
X265107Y199244D01*
X265786Y67073D02*
X265492Y66780D01*
X264905Y66485D01*
X264024D01*
X263436Y66780D01*
X263142Y67073D01*
X262848Y67661D01*
Y68835D01*
X263142Y69423D01*
X263436Y69717D01*
X264024Y70011D01*
X264905D01*
X265492Y69717D01*
X265786Y69423D01*
X268136Y66485D02*
X269311D01*
X268724D02*
Y70011D01*
X268136Y69423D01*
X274598Y66485D02*
X272248D01*
X274305Y68542D01*
X274598Y69130D01*
X274305Y69717D01*
X273717Y70011D01*
X272836D01*
X272248Y69717D01*
X266710Y92094D02*
X266443Y91776D01*
X265884Y91432D01*
X265006Y91356D01*
X264395Y91597D01*
X264077Y91864D01*
X263733Y92424D01*
X263631Y93594D01*
X263872Y94205D01*
X264139Y94523D01*
X264699Y94867D01*
X265577Y94944D01*
X266187Y94703D01*
X266506Y94435D01*
X269103Y91714D02*
X270273Y91816D01*
X269688Y91765D02*
X269381Y95277D01*
X268846Y94641D01*
X273785Y92123D02*
X274956Y92226D01*
X274370Y92175D02*
X274063Y95687D01*
X273529Y95050D01*
X269935Y49750D02*
X270229Y49457D01*
X270816Y49163D01*
X271404Y49457D01*
X271698Y49750D01*
Y52688D01*
X272285D01*
X271698D02*
X270522D01*
X274635Y49457D02*
X275222Y49163D01*
X276104D01*
X276691Y49457D01*
X276985Y50044D01*
Y50338D01*
X276691Y50925D01*
X276104Y51219D01*
X274635D01*
Y52688D01*
X276985D01*
X272569Y252550D02*
Y249906D01*
X272863Y249319D01*
X273450Y249025D01*
X274625D01*
X275213Y249319D01*
X275506Y249906D01*
Y252550D01*
X278738Y249025D02*
Y252550D01*
X277269Y250200D01*
X279619D01*
X290589Y203687D02*
X290295Y203394D01*
X289708Y203100D01*
X288827D01*
X288239Y203394D01*
X287945Y203687D01*
X287652Y204275D01*
Y205450D01*
X287945Y206037D01*
X288239Y206331D01*
X288827Y206625D01*
X289708D01*
X290295Y206331D01*
X290589Y206037D01*
X292939Y203100D02*
X294114D01*
X293527D02*
Y206625D01*
X292939Y206037D01*
X297345Y203394D02*
X297933Y203100D01*
X298520D01*
X299108Y203394D01*
X299402Y203981D01*
Y205744D01*
X299108Y206331D01*
X298520Y206625D01*
X297933D01*
X297345Y206331D01*
X297052Y205744D01*
Y203981D01*
X297345Y203394D01*
X299108Y206331D01*
X292756Y265058D02*
X292462Y264765D01*
X291875Y264470D01*
X290994D01*
X290406Y264765D01*
X290112Y265058D01*
X289819Y265646D01*
Y266820D01*
X290112Y267408D01*
X290406Y267702D01*
X290994Y267996D01*
X291875D01*
X292462Y267702D01*
X292756Y267408D01*
X295400Y264470D02*
X295987Y264765D01*
X296575Y265352D01*
X296869Y266233D01*
Y267115D01*
X296575Y267702D01*
X295987Y267996D01*
X295400D01*
X294812Y267702D01*
X294519Y267115D01*
X294812Y266527D01*
X295400Y266233D01*
X295987D01*
X296575Y266527D01*
X296869Y267115D01*
X290235Y162848D02*
X286710D01*
Y164905D01*
X287004Y165492D01*
X287591Y165786D01*
X288179Y165492D01*
X288472Y164905D01*
Y162848D01*
Y164905D02*
X290235Y165786D01*
Y168136D02*
Y169311D01*
Y168724D02*
X286710D01*
X287297Y168136D01*
X289941Y172542D02*
X290235Y173130D01*
Y173717D01*
X289941Y174305D01*
X289354Y174598D01*
X287591D01*
X287004Y174305D01*
X286710Y173717D01*
Y173130D01*
X287004Y172542D01*
X287591Y172248D01*
X289354D01*
X289941Y172542D01*
X287004Y174305D01*
X342770Y99950D02*
Y103475D01*
X344826D01*
X345413Y103181D01*
X345707Y102594D01*
X345413Y102006D01*
X344826Y101713D01*
X342770D01*
X344826D02*
X345707Y99950D01*
X348057D02*
X349232D01*
X348645D02*
Y103475D01*
X348057Y102888D01*
X354520Y99950D02*
X352170D01*
X354226Y102006D01*
X354520Y102594D01*
X354226Y103181D01*
X353639Y103475D01*
X352757D01*
X352170Y103181D01*
X356549Y124359D02*
Y127885D01*
X358606D01*
X359193Y127591D01*
X359487Y127004D01*
X359193Y126416D01*
X358606Y126122D01*
X356549D01*
X358606D02*
X359487Y124359D01*
X361837D02*
X363012D01*
X362424D02*
Y127885D01*
X361837Y127297D01*
X366537Y124359D02*
X367712D01*
X367124D02*
Y127885D01*
X366537Y127297D01*
X381352Y111561D02*
X381646Y111268D01*
X382233Y110974D01*
X382821Y111268D01*
X383115Y111561D01*
Y114499D01*
X383702D01*
X383115D02*
X381940D01*
X386346Y111268D02*
X386933Y110974D01*
X387521D01*
X388109Y111268D01*
X388402Y111855D01*
X388109Y112443D01*
X387521Y112736D01*
X386933D01*
X387521D02*
X388109Y113030D01*
X388402Y113618D01*
X388109Y114205D01*
X387521Y114499D01*
X386933D01*
X386346Y114205D01*
D02*
D13*
X190644Y195604D02*
X206392D01*
X190644Y203478D02*
X206392D01*
D02*
D14*
X4356Y171014D02*
G75*
G02*
X3931I-213J0D01*
G01*
X4356D02*
G75*
G02*
X3931I-213J0D01*
G01*
G75*
G02*
X4356I213J0D01*
G01*
X8478Y165604D02*
X10250D01*
X8478Y175821D02*
X10250D01*
X18715Y165604D02*
X16943D01*
X18715Y175821D02*
X16943D01*
D02*
D17*
X137119Y267023D02*
G75*
G03*
X124119I-6500J-10677D01*
G01*
X165367Y222946D02*
G75*
G03*
Y209946I10677J-6500D01*
G01*
X280721Y101293D02*
G75*
G03*
Y88293I10677J-6500D01*
G01*
X281115Y74915D02*
G75*
G03*
Y61915I10677J-6500D01*
G01*
X304819Y214168D02*
G75*
G03*
Y227168I-10677J6500D01*
G01*
Y244089D02*
G75*
G03*
Y257089I-10677J6500D01*
G01*
X0Y0D02*
M02*
