G04 DesignSpark PCB Gerber Version 10.0 Build 5299*
G04 #@! TF.Part,Single*
G04 #@! TF.FileFunction,Copper,L2,Bot*
G04 #@! TF.FilePolarity,Positive*
%FSLAX35Y35*%
%MOIN*%
G04 #@! TA.AperFunction,ComponentPad*
%ADD125R,0.05906X0.05906*%
%ADD128R,0.06000X0.06000*%
%ADD22R,0.08000X0.08000*%
G04 #@! TD.AperFunction*
%ADD10C,0.00500*%
%ADD14C,0.01000*%
%ADD19C,0.01500*%
G04 #@! TA.AperFunction,ComponentPad*
%ADD73C,0.04331*%
G04 #@! TA.AperFunction,ViaPad*
%ADD70C,0.04800*%
G04 #@! TD.AperFunction*
%ADD16C,0.05000*%
G04 #@! TA.AperFunction,ComponentPad*
%AMT103*0 Rounded Rectangle Pad at angle 90*4,1,56,0.04921,-0.00984,0.04921,0.00984,0.04907,0.01222,0.04864,0.01456,0.04793,0.01682,0.04696,0.01899,0.04573,0.02103,0.04426,0.02290,0.04258,0.02458,0.04071,0.02604,0.03868,0.02727,0.03651,0.02825,0.03424,0.02896,0.03190,0.02939,0.02953,0.02953,-0.02953,0.02953,-0.03190,0.02939,-0.03424,0.02896,-0.03651,0.02825,-0.03868,0.02727,-0.04071,0.02604,-0.04258,0.02458,-0.04426,0.02290,-0.04573,0.02103,-0.04696,0.01899,-0.04793,0.01682,-0.04864,0.01456,-0.04907,0.01222,-0.04921,0.00984,-0.04921,-0.00984,-0.04907,-0.01222,-0.04864,-0.01456,-0.04793,-0.01682,-0.04696,-0.01899,-0.04573,-0.02103,-0.04426,-0.02290,-0.04258,-0.02458,-0.04071,-0.02604,-0.03868,-0.02727,-0.03651,-0.02825,-0.03424,-0.02896,-0.03190,-0.02939,-0.02953,-0.02953,0.02953,-0.02953,0.03190,-0.02939,0.03424,-0.02896,0.03651,-0.02825,0.03868,-0.02727,0.04071,-0.02604,0.04258,-0.02458,0.04426,-0.02290,0.04573,-0.02103,0.04696,-0.01899,0.04793,-0.01682,0.04864,-0.01456,0.04907,-0.01222,0.04921,-0.00984,0*%
%ADD103T103*%
G04 #@! TA.AperFunction,ViaPad*
%ADD123C,0.05600*%
G04 #@! TA.AperFunction,ComponentPad*
%ADD133C,0.05900*%
%ADD104C,0.06000*%
%ADD126C,0.07000*%
%ADD23C,0.08000*%
%ADD77C,0.25197*%
%ADD132R,0.05900X0.05900*%
G04 #@! TD.AperFunction*
X0Y0D02*
D02*
D10*
X391451Y179384D02*
X356549D01*
Y214285D01*
X315211D01*
G75*
G02*
X313670Y214817I0J2500D01*
G01*
X313242D01*
Y215244D01*
G75*
G02*
X312711Y216785I1969J1541D01*
G01*
Y271904D01*
X81490D01*
Y216785D01*
G75*
G02*
X80959Y215244I-2500J0D01*
G01*
Y214817D01*
X80531D01*
G75*
G02*
X78990Y214285I-1541J1969D01*
G01*
X37652D01*
Y179384D01*
X2750D01*
Y92770D01*
X28805D01*
X25159Y96415D01*
G75*
G02*
X24059Y99069I2650J2654D01*
G01*
Y120350D01*
X23106Y121303D01*
X17815D01*
G75*
G02*
X17487Y121116I-1497J2250D01*
G01*
G75*
G02*
X19020Y118680I-1169J-2436D01*
G01*
Y115678D01*
G75*
G02*
X17487Y113242I-2702J0D01*
G01*
G75*
G02*
X19020Y110806I-1169J-2436D01*
G01*
Y107804D01*
G75*
G02*
X17487Y105368I-2702J0D01*
G01*
G75*
G02*
X19020Y102932I-1169J-2436D01*
G01*
Y99930D01*
G75*
G02*
X16318Y97228I-2702J0D01*
G01*
X9379D01*
G75*
G02*
X6677Y99930I0J2702D01*
G01*
Y102932D01*
G75*
G02*
X8210Y105368I2702J0D01*
G01*
G75*
G02*
X6677Y107804I1169J2436D01*
G01*
Y110806D01*
G75*
G02*
X8210Y113242I2702J0D01*
G01*
G75*
G02*
X6677Y115678I1169J2436D01*
G01*
Y118680D01*
G75*
G02*
X8210Y121116I2702J0D01*
G01*
G75*
G02*
X6677Y123552I1169J2436D01*
G01*
Y126554D01*
G75*
G02*
X8210Y128990I2702J0D01*
G01*
G75*
G02*
X6677Y131426I1169J2436D01*
G01*
Y134428D01*
G75*
G02*
X8210Y136864I2702J0D01*
G01*
G75*
G02*
X6677Y139300I1169J2436D01*
G01*
Y142302D01*
G75*
G02*
X8210Y144738I2702J0D01*
G01*
G75*
G02*
X6677Y147174I1169J2436D01*
G01*
Y150176D01*
G75*
G02*
X8210Y152612I2702J0D01*
G01*
G75*
G02*
X6677Y155048I1169J2436D01*
G01*
Y158050D01*
G75*
G02*
X9379Y160752I2702J0D01*
G01*
X16318D01*
G75*
G02*
X19020Y158050I0J-2702D01*
G01*
Y155048D01*
G75*
G02*
X17487Y152612I-2702J0D01*
G01*
G75*
G02*
X19020Y150176I-1169J-2436D01*
G01*
Y147174D01*
G75*
G02*
X17487Y144738I-2702J0D01*
G01*
G75*
G02*
X19020Y142302I-1169J-2436D01*
G01*
Y139300D01*
G75*
G02*
X17487Y136864I-2702J0D01*
G01*
G75*
G02*
X19020Y134428I-1169J-2436D01*
G01*
Y131426D01*
G75*
G02*
X17487Y128990I-2702J0D01*
G01*
G75*
G02*
X17815Y128803I-1169J-2437D01*
G01*
X24659D01*
G75*
G02*
X27313Y127703I0J-3750D01*
G01*
X30459Y124557D01*
G75*
G02*
X31559Y121904I-2650J-2654D01*
G01*
Y100622D01*
X40695Y91487D01*
G75*
G02*
X41795Y88833I-2650J-2654D01*
G01*
Y76213D01*
X48260Y69748D01*
X80959D01*
G75*
G02*
X83613Y68648I0J-3750D01*
G01*
X89120Y63140D01*
G75*
G02*
X90220Y60486I-2650J-2654D01*
G01*
Y14378D01*
G75*
G02*
X90520Y12848I-3750J-1530D01*
G01*
G75*
G02*
X82420I-4050J0D01*
G01*
G75*
G02*
X82720Y14378I4050J0D01*
G01*
Y58933D01*
X81222Y60431D01*
G75*
G02*
X81490Y59305I-2232J-1126D01*
G01*
Y2750D01*
X312711D01*
Y59305D01*
G75*
G02*
X313242Y60846I2500J0D01*
G01*
Y61274D01*
X313670D01*
G75*
G02*
X315211Y61805I1541J-1969D01*
G01*
X356549D01*
Y94738D01*
X391451D01*
Y179384D01*
X369409Y118492D02*
X379909D01*
Y107992D01*
X369409D01*
Y111006D01*
G75*
G02*
X359659Y111641I-4750J2236D01*
G01*
G75*
G02*
X349659I-5000J1601D01*
G01*
G75*
G02*
X339409Y113242I-5000J1601D01*
G01*
G75*
G02*
X349659Y114843I5250J0D01*
G01*
G75*
G02*
X359659I5000J-1601D01*
G01*
G75*
G02*
X369409Y115478I5000J-1601D01*
G01*
Y118492D01*
X94770Y162752D02*
G75*
G02*
X96420Y159699I-2000J-3053D01*
G01*
G75*
G02*
X89120I-3650J0D01*
G01*
G75*
G02*
X90770Y162752I3650J0D01*
G01*
Y185616D01*
G75*
G02*
X84395Y188045I-2724J2429D01*
G01*
G75*
G02*
X86045Y191098I3650J0D01*
G01*
Y211370D01*
G75*
G02*
X84395Y214423I2000J3053D01*
G01*
G75*
G02*
X91695I3650J0D01*
G01*
G75*
G02*
X90724Y211944I-3650J0D01*
G01*
G75*
G02*
X93982Y205465I1258J-3426D01*
G01*
Y194385D01*
X94182Y194185D01*
G75*
G02*
X94770Y192770I-1413J-1416D01*
G01*
Y162752D01*
X92504Y258390D02*
X100909D01*
Y249984D01*
X92504D01*
Y258390D01*
X106257Y254187D02*
G75*
G02*
X114757I4250J0D01*
G01*
G75*
G02*
X106257I-4250J0D01*
G01*
X107071Y37917D02*
X115476D01*
Y29512D01*
X107071D01*
Y37917D01*
X115498Y143951D02*
G75*
G02*
X122798I3650J0D01*
G01*
G75*
G02*
X121148Y140898I-3650J0D01*
G01*
Y122297D01*
G75*
G02*
X120560Y120881I-2000J0D01*
G01*
X117996Y118318D01*
G75*
G02*
X118073Y117573I-3574J-745D01*
G01*
G75*
G02*
X110773I-3650J0D01*
G01*
G75*
G02*
X115168Y121146I3650J0D01*
G01*
X117148Y123126D01*
Y140898D01*
G75*
G02*
X115498Y143951I2000J3053D01*
G01*
X120824Y33715D02*
G75*
G02*
X129324I4250J0D01*
G01*
G75*
G02*
X120824I-4250J0D01*
G01*
X116679Y229778D02*
G75*
G02*
X123979I3650J0D01*
G01*
G75*
G02*
X122329Y226724I-3650J0D01*
G01*
Y185193D01*
G75*
G02*
X123979Y182140I-2000J-3053D01*
G01*
G75*
G02*
X116679I-3650J0D01*
G01*
G75*
G02*
X118329Y185193I3650J0D01*
G01*
Y226724D01*
G75*
G02*
X116679Y229778I2000J3053D01*
G01*
X127447Y116206D02*
G75*
G02*
X134609Y115211I3512J-995D01*
G01*
G75*
G02*
X132959Y112157I-3650J0D01*
G01*
Y108421D01*
G75*
G02*
X134609Y105368I-2000J-3053D01*
G01*
G75*
G02*
X127447Y104373I-3650J0D01*
G01*
Y97189D01*
G75*
G02*
X129809Y90504I362J-3632D01*
G01*
Y82437D01*
G75*
G02*
X131459Y79384I-2000J-3053D01*
G01*
G75*
G02*
X124159I-3650J0D01*
G01*
G75*
G02*
X125809Y82437I3650J0D01*
G01*
Y90504D01*
G75*
G02*
X124236Y94302I2000J3054D01*
G01*
X124034Y94504D01*
G75*
G02*
X123447Y95919I1413J1416D01*
G01*
Y120722D01*
G75*
G02*
X124034Y122138I2000J0D01*
G01*
X125809Y123913D01*
Y135386D01*
G75*
G02*
X124159Y138439I2000J3053D01*
G01*
G75*
G02*
X131459I3650J0D01*
G01*
G75*
G02*
X129809Y135386I-3650J0D01*
G01*
Y123085D01*
G75*
G02*
X129222Y121669I-2000J0D01*
G01*
X127447Y119894D01*
Y116206D01*
X133608Y120329D02*
G75*
G02*
X140908I3650J0D01*
G01*
G75*
G02*
X139258Y117276I-3650J0D01*
G01*
Y102516D01*
G75*
G02*
X140908Y99463I-2000J-3053D01*
G01*
G75*
G02*
X133608I-3650J0D01*
G01*
G75*
G02*
X135258Y102516I3650J0D01*
G01*
Y117276D01*
G75*
G02*
X133608Y120329I2000J3053D01*
G01*
X134624Y33715D02*
G75*
G02*
X143124I4250J0D01*
G01*
G75*
G02*
X134624I-4250J0D01*
G01*
X139907Y138439D02*
G75*
G02*
X147207I3650J0D01*
G01*
G75*
G02*
X145557Y135386I-3650J0D01*
G01*
Y88343D01*
G75*
G02*
X147207Y85289I-2000J-3053D01*
G01*
G75*
G02*
X139907I-3650J0D01*
G01*
G75*
G02*
X141557Y88343I3650J0D01*
G01*
Y135386D01*
G75*
G02*
X139907Y138439I2000J3053D01*
G01*
X126315Y255774D02*
X134815D01*
Y247274D01*
X126315D01*
Y255774D01*
Y261523D02*
G75*
G02*
X134815I4250J0D01*
G01*
G75*
G02*
X126315I-4250J0D01*
G01*
X156267Y128668D02*
G75*
G02*
X157762Y122000I-505J-3615D01*
G01*
Y97398D01*
G75*
G02*
X159412Y94344I-2000J-3053D01*
G01*
G75*
G02*
X152112I-3650J0D01*
G01*
G75*
G02*
X153762Y97398I3650J0D01*
G01*
Y122000D01*
G75*
G02*
X153289Y127737I2000J3053D01*
G01*
G75*
G02*
X151793Y134406I505J3615D01*
G01*
Y172680D01*
G75*
G02*
X151400Y173872I1607J1192D01*
G01*
Y213339D01*
G75*
G02*
X149750Y216392I2000J3053D01*
G01*
G75*
G02*
X157050I3650J0D01*
G01*
G75*
G02*
X155400Y213339I-3650J0D01*
G01*
Y175064D01*
G75*
G02*
X155793Y173872I-1607J-1192D01*
G01*
Y134406D01*
G75*
G02*
X156267Y128668I-2000J-3053D01*
G01*
X165636Y55102D02*
G75*
G02*
X167680Y51825I-1606J-3278D01*
G01*
G75*
G02*
X160380I-3650J0D01*
G01*
G75*
G02*
X161636Y54580I3650J0D01*
G01*
Y109688D01*
G75*
G02*
X161242Y110880I1607J1192D01*
G01*
G75*
G02*
Y110881I1230J1D01*
G01*
G75*
G02*
Y110884I957J2D01*
G01*
Y177118D01*
G75*
G02*
X159592Y180171I2000J3053D01*
G01*
G75*
G02*
X166892I3650J0D01*
G01*
G75*
G02*
X165242Y177118I-3650J0D01*
G01*
Y111678D01*
G75*
G02*
X165636Y110486I-1607J-1192D01*
G01*
G75*
G02*
Y110485I-1230J0D01*
G01*
G75*
G02*
Y110482I-957J-1D01*
G01*
Y55102D01*
X162665Y251431D02*
G75*
G02*
X172165I4750J0D01*
G01*
G75*
G02*
X162665I-4750J0D01*
G01*
X166617Y216392D02*
G75*
G02*
X175117I4250J0D01*
G01*
G75*
G02*
X166617I-4250J0D01*
G01*
X172033Y110356D02*
X180435D01*
Y101955D01*
X172033D01*
Y110356D01*
X172665Y251431D02*
G75*
G02*
X182165I4750J0D01*
G01*
G75*
G02*
X172665I-4750J0D01*
G01*
X176616Y220642D02*
X185116D01*
Y212142D01*
X184617D01*
Y201386D01*
G75*
G02*
X184917Y199856I-3750J-1530D01*
G01*
G75*
G02*
X176817I-4050J0D01*
G01*
G75*
G02*
X177117Y201386I4050J0D01*
G01*
Y212142D01*
X176616D01*
Y220642D01*
X186234Y110356D02*
G75*
G02*
X190434Y106156I0J-4200D01*
G01*
G75*
G02*
X186234Y101956I-4200J0D01*
G01*
G75*
G02*
X182034Y106156I0J4200D01*
G01*
G75*
G02*
X186234Y110356I4200J0D01*
G01*
X182665Y251431D02*
G75*
G02*
X192165I4750J0D01*
G01*
G75*
G02*
X182665I-4750J0D01*
G01*
X199276Y109052D02*
G75*
G02*
X199984Y104264I-3041J-2896D01*
G01*
Y26583D01*
G75*
G02*
X200284Y25053I-3750J-1530D01*
G01*
G75*
G02*
X192184I-4050J0D01*
G01*
G75*
G02*
X192484Y26583I4050J0D01*
G01*
Y104264D01*
G75*
G02*
X192126Y105280I3749J1891D01*
G01*
G75*
G02*
X191776Y106864I3400J1584D01*
G01*
G75*
G02*
Y106866I2256J1D01*
G01*
G75*
G02*
Y106870I2103J2D01*
G01*
Y154626D01*
G75*
G02*
Y157685I3750J1530D01*
G01*
Y173130D01*
G75*
G02*
Y176189I3750J1530D01*
G01*
Y190035D01*
X190947Y190864D01*
G75*
G02*
X189846Y193518I2650J2654D01*
G01*
Y199465D01*
G75*
G02*
X193596Y203292I3750J77D01*
G01*
G75*
G02*
X197346Y199465I0J-3751D01*
G01*
Y195071D01*
X198175Y194243D01*
G75*
G02*
X199276Y191589I-2650J-2654D01*
G01*
Y176189D01*
G75*
G02*
Y173130I-3750J-1530D01*
G01*
Y157685D01*
G75*
G02*
Y154626I-3750J-1530D01*
G01*
Y109052D01*
X200024Y199541D02*
G75*
G02*
X206854I3415J0D01*
G01*
G75*
G02*
X200024I-3415J0D01*
G01*
X206234Y110356D02*
G75*
G02*
X210434Y106156I0J-4200D01*
G01*
G75*
G02*
X206234Y101956I-4200J0D01*
G01*
G75*
G02*
X202034Y106156I0J4200D01*
G01*
G75*
G02*
X206234Y110356I4200J0D01*
G01*
X217998Y109967D02*
G75*
G02*
X216234Y101956I-1764J-3812D01*
G01*
G75*
G02*
X213998Y109711I0J4200D01*
G01*
Y136961D01*
G75*
G02*
X212348Y140014I2000J3053D01*
G01*
G75*
G02*
X219648I3650J0D01*
G01*
G75*
G02*
X217998Y136961I-3650J0D01*
G01*
Y109967D01*
X226234Y110356D02*
G75*
G02*
X230434Y106156I0J-4200D01*
G01*
G75*
G02*
X226234Y101956I-4200J0D01*
G01*
G75*
G02*
X222034Y106156I0J4200D01*
G01*
G75*
G02*
X226234Y110356I4200J0D01*
G01*
X238077Y109930D02*
G75*
G02*
X236234Y101956I-1843J-3774D01*
G01*
G75*
G02*
X234077Y109759I0J4200D01*
G01*
Y122000D01*
G75*
G02*
X232427Y125053I2000J3053D01*
G01*
G75*
G02*
X239727I3650J0D01*
G01*
G75*
G02*
X238077Y122000I-3650J0D01*
G01*
Y109930D01*
X234319Y250644D02*
G75*
G02*
X243819I4750J0D01*
G01*
G75*
G02*
X234319I-4750J0D01*
G01*
X259173Y194476D02*
X269673D01*
Y183976D01*
X266659D01*
G75*
G02*
X266024Y174226I-2236J-4750D01*
G01*
G75*
G02*
Y164226I-1601J-5000D01*
G01*
G75*
G02*
Y154226I-1601J-5000D01*
G01*
G75*
G02*
Y144226I-1601J-5000D01*
G01*
G75*
G02*
X269673Y139226I-1601J-5000D01*
G01*
G75*
G02*
X259173I-5250J0D01*
G01*
G75*
G02*
X262822Y144226I5250J0D01*
G01*
G75*
G02*
X259478Y147463I1601J5000D01*
G01*
X244344D01*
G75*
G02*
X242929Y148050I0J2000D01*
G01*
X236633Y154346D01*
G75*
G02*
X236045Y155762I1413J1416D01*
G01*
Y179480D01*
G75*
G02*
X234395Y182533I2000J3053D01*
G01*
G75*
G02*
X241695I3650J0D01*
G01*
G75*
G02*
X240045Y179480I-3650J0D01*
G01*
Y156590D01*
X245173Y151463D01*
X259673D01*
G75*
G02*
X262822Y154226I4750J-2236D01*
G01*
G75*
G02*
X259537Y157305I1601J5000D01*
G01*
X249072D01*
G75*
G02*
X247550Y158004I-3J2000D01*
G01*
X245188Y160759D01*
G75*
G02*
X244707Y162061I1519J1302D01*
G01*
Y182630D01*
G75*
G02*
X243057Y185683I2000J3053D01*
G01*
G75*
G02*
X250357I3650J0D01*
G01*
G75*
G02*
X248707Y182630I-3650J0D01*
G01*
Y162801D01*
X249989Y161305D01*
X259602D01*
G75*
G02*
X262822Y164226I4821J-2079D01*
G01*
G75*
G02*
Y174226I1601J5000D01*
G01*
G75*
G02*
X262187Y183976I1601J5000D01*
G01*
X259173D01*
Y194476D01*
X246234Y110356D02*
G75*
G02*
X250434Y106156I0J-4200D01*
G01*
G75*
G02*
X246234Y101956I-4200J0D01*
G01*
G75*
G02*
X242034Y106156I0J4200D01*
G01*
G75*
G02*
X246234Y110356I4200J0D01*
G01*
X244319Y250644D02*
G75*
G02*
X253819I4750J0D01*
G01*
G75*
G02*
X244319I-4750J0D01*
G01*
X254319D02*
G75*
G02*
X263819I4750J0D01*
G01*
G75*
G02*
X254319I-4750J0D01*
G01*
X272819Y37917D02*
X281224D01*
Y29512D01*
X272819D01*
Y37917D01*
X281971Y94738D02*
G75*
G02*
X290471I4250J0D01*
G01*
G75*
G02*
X281971I-4250J0D01*
G01*
X282365Y68360D02*
G75*
G02*
X290865I4250J0D01*
G01*
G75*
G02*
X282365I-4250J0D01*
G01*
X286572Y33715D02*
G75*
G02*
X295072I4250J0D01*
G01*
G75*
G02*
X286572I-4250J0D01*
G01*
X308372Y35715D02*
G75*
G02*
X308872Y33715I-3750J-2000D01*
G01*
G75*
G02*
X300372I-4250J0D01*
G01*
G75*
G02*
X300872Y35715I4250J0D01*
G01*
Y58800D01*
X295561Y64110D01*
X292364D01*
Y72610D01*
X292471D01*
Y90488D01*
X291970D01*
Y98988D01*
X292563D01*
Y109720D01*
X286668Y115614D01*
G75*
G02*
X285567Y118268I2649J2654D01*
G01*
Y216472D01*
X285069D01*
Y224972D01*
X293569D01*
Y216472D01*
X293067D01*
Y119822D01*
X298962Y113928D01*
G75*
G02*
X300063Y111274I-2649J-2654D01*
G01*
Y98988D01*
X300470D01*
Y90488D01*
X299971D01*
Y72610D01*
X300864D01*
Y69414D01*
X307271Y63007D01*
G75*
G02*
X308372Y60353I-2650J-2654D01*
G01*
Y35715D01*
X285069Y254894D02*
X293569D01*
Y246394D01*
X285069D01*
Y254894D01*
X295069Y220722D02*
G75*
G02*
X303569I4250J0D01*
G01*
G75*
G02*
X295069I-4250J0D01*
G01*
Y250644D02*
G75*
G02*
X303569I4250J0D01*
G01*
G75*
G02*
X295069I-4250J0D01*
G01*
X69468Y160752D02*
G75*
G02*
X72169Y158050I0J-2702D01*
G01*
Y155048D01*
G75*
G02*
X70636Y152612I-2702J0D01*
G01*
G75*
G02*
X72169Y150176I-1169J-2436D01*
G01*
Y147174D01*
G75*
G02*
X70636Y144738I-2702J0D01*
G01*
G75*
G02*
X72169Y142302I-1169J-2436D01*
G01*
Y139300D01*
G75*
G02*
X70636Y136864I-2702J0D01*
G01*
G75*
G02*
X72169Y134428I-1169J-2436D01*
G01*
Y131426D01*
G75*
G02*
X70636Y128990I-2702J0D01*
G01*
G75*
G02*
X72169Y126554I-1169J-2436D01*
G01*
Y123552D01*
G75*
G02*
X70636Y121116I-2702J0D01*
G01*
G75*
G02*
X72169Y118680I-1169J-2436D01*
G01*
Y115678D01*
G75*
G02*
X70636Y113242I-2702J0D01*
G01*
G75*
G02*
X72169Y110806I-1169J-2436D01*
G01*
Y107804D01*
G75*
G02*
X70636Y105368I-2702J0D01*
G01*
G75*
G02*
X72169Y102932I-1169J-2436D01*
G01*
Y99930D01*
G75*
G02*
X69468Y97228I-2702J0D01*
G01*
X62528D01*
G75*
G02*
X59827Y99930I0J2702D01*
G01*
Y102932D01*
G75*
G02*
X61360Y105368I2702J0D01*
G01*
G75*
G02*
X59827Y107804I1169J2436D01*
G01*
Y110806D01*
G75*
G02*
X61360Y113242I2702J0D01*
G01*
G75*
G02*
X59827Y115678I1169J2436D01*
G01*
Y118680D01*
G75*
G02*
X61360Y121116I2702J0D01*
G01*
G75*
G02*
X59827Y123552I1169J2436D01*
G01*
Y126554D01*
G75*
G02*
X61360Y128990I2702J0D01*
G01*
G75*
G02*
X59827Y131426I1169J2436D01*
G01*
Y134428D01*
G75*
G02*
X61360Y136864I2702J0D01*
G01*
G75*
G02*
X59827Y139300I1169J2436D01*
G01*
Y142302D01*
G75*
G02*
X61360Y144738I2702J0D01*
G01*
G75*
G02*
X59827Y147174I1169J2436D01*
G01*
Y150176D01*
G75*
G02*
X61360Y152612I2702J0D01*
G01*
G75*
G02*
X59827Y155048I1169J2436D01*
G01*
Y158050D01*
G75*
G02*
X62528Y160752I2702J0D01*
G01*
X69468D01*
X74946Y132533D02*
G75*
G02*
X82246I3650J0D01*
G01*
G75*
G02*
X80596Y129480I-3650J0D01*
G01*
Y91886D01*
G75*
G02*
X82246Y88833I-2000J-3053D01*
G01*
G75*
G02*
X74946I-3650J0D01*
G01*
G75*
G02*
X76596Y91886I3650J0D01*
G01*
Y129480D01*
G75*
G02*
X74946Y132533I2000J3053D01*
G01*
X84544Y168390D02*
G75*
G02*
X88939Y164817I745J-3573D01*
G01*
G75*
G02*
X81639I-3650J0D01*
G01*
G75*
G02*
X81716Y165562I3651J0D01*
G01*
X79546Y167732D01*
G75*
G02*
X78959Y169148I1413J1416D01*
G01*
Y195622D01*
G75*
G02*
X77309Y198675I2000J3053D01*
G01*
G75*
G02*
X84609I3650J0D01*
G01*
G75*
G02*
X82959Y195622I-3650J0D01*
G01*
Y169976D01*
X84544Y168390D01*
X82427Y93557D02*
G75*
G02*
X89727I3650J0D01*
G01*
G75*
G02*
X88077Y90504I-3650J0D01*
G01*
Y77909D01*
G75*
G02*
X89727Y74856I-2000J-3053D01*
G01*
G75*
G02*
X82427I-3650J0D01*
G01*
G75*
G02*
X84077Y77909I3650J0D01*
G01*
Y90504D01*
G75*
G02*
X82427Y93557I2000J3053D01*
G01*
X87939Y125841D02*
G75*
G02*
X95239I3650J0D01*
G01*
G75*
G02*
X93589Y122787I-3650J0D01*
G01*
Y108421D01*
G75*
G02*
X95239Y105368I-2000J-3053D01*
G01*
G75*
G02*
X87939I-3650J0D01*
G01*
G75*
G02*
X89589Y108421I3650J0D01*
G01*
Y122787D01*
G75*
G02*
X87939Y125841I2000J3053D01*
G01*
X81490Y33715D02*
G36*
X81490Y33715D02*
Y3000D01*
X312711D01*
Y33715D01*
X308872D01*
G75*
G02*
X300372I-4250J0D01*
G01*
X295072D01*
G75*
G02*
X286572I-4250J0D01*
G01*
X281224D01*
Y29512D01*
X272819D01*
Y33715D01*
X199984D01*
Y26583D01*
G75*
G02*
X200284Y25055I-3741J-1528D01*
G01*
G75*
G02*
Y25053I-4101J-1D01*
G01*
G75*
G02*
X192184I-4050J0D01*
G01*
G75*
G02*
Y25054I4101J0D01*
G01*
G75*
G02*
X192484Y26583I4045J0D01*
G01*
Y33715D01*
X143124D01*
G75*
G02*
X134624I-4250J0D01*
G01*
X129324D01*
G75*
G02*
X120824I-4250J0D01*
G01*
X115476D01*
Y29512D01*
X107071D01*
Y33715D01*
X90220D01*
Y14378D01*
G75*
G02*
X90520Y12850I-3741J-1528D01*
G01*
G75*
G02*
Y12848I-4101J-1D01*
G01*
G75*
G02*
X82420I-4050J0D01*
G01*
G75*
G02*
Y12849I4101J0D01*
G01*
G75*
G02*
X82720Y14378I4045J0D01*
G01*
Y33715D01*
X81490D01*
G37*
Y59305D02*
G36*
X81490Y59305D02*
Y33715D01*
X82720D01*
Y58933D01*
X81222Y60431D01*
G75*
G02*
X81490Y59305I-2236J-1127D01*
G01*
G37*
X83900Y68360D02*
G36*
X83900Y68360D02*
X89120Y63140D01*
G75*
G02*
X90220Y60487I-2648J-2653D01*
G01*
G75*
G02*
Y60486I-4511J0D01*
G01*
Y33715D01*
X107071D01*
Y37917D01*
X115476D01*
Y33715D01*
X120824D01*
G75*
G02*
X129324I4250J0D01*
G01*
X134624D01*
G75*
G02*
X143124I4250J0D01*
G01*
X192484D01*
Y68360D01*
X165636D01*
Y55102D01*
G75*
G02*
X167680Y51825I-1607J-3278D01*
G01*
G75*
G02*
X160380I-3650J0D01*
G01*
G75*
G02*
Y51826I5013J0D01*
G01*
G75*
G02*
X161636Y54580I3648J0D01*
G01*
Y68360D01*
X83900D01*
G37*
X199984D02*
G36*
X199984Y68360D02*
Y33715D01*
X272819D01*
Y37917D01*
X281224D01*
Y33715D01*
X286572D01*
G75*
G02*
X295072I4250J0D01*
G01*
X300372D01*
G75*
G02*
X300872Y35715I4247J1D01*
G01*
Y58800D01*
X295561Y64110D01*
X292364D01*
Y68360D01*
X290865D01*
G75*
G02*
X282365I-4250J0D01*
G01*
X199984D01*
G37*
X301918D02*
G36*
X301918Y68360D02*
X307271Y63007D01*
G75*
G02*
X308372Y60354I-2648J-2653D01*
G01*
G75*
G02*
Y60353I-4511J0D01*
G01*
Y35715D01*
G75*
G02*
X308872Y33715I-3747J-1999D01*
G01*
X312711Y33715D01*
Y59305D01*
G75*
G02*
X313242Y60846I2500J0D01*
G01*
Y61274D01*
X313670D01*
G75*
G02*
X315211Y61805I1541J-1969D01*
G01*
X356549D01*
Y68360D01*
X301918D01*
G37*
X3000Y94738D02*
G36*
X3000Y94738D02*
Y92770D01*
X28805D01*
X26837Y94738D01*
X3000D01*
G37*
X37443D02*
G36*
X37443Y94738D02*
X40695Y91487D01*
G75*
G02*
X41795Y88834I-2648J-2653D01*
G01*
G75*
G02*
Y88833I-4511J0D01*
G01*
Y76213D01*
X48260Y69748D01*
X80959D01*
G75*
G02*
X83613Y68648I1J-3748D01*
G01*
X83900Y68360D01*
X161636D01*
Y94738D01*
X159391D01*
G75*
G02*
X159412Y94344I-3630J-393D01*
G01*
G75*
G02*
X152112I-3650J0D01*
G01*
G75*
G02*
X152133Y94738I3651J0D01*
G01*
X145557D01*
Y88343D01*
G75*
G02*
X147207Y85289I-2000J-3053D01*
G01*
G75*
G02*
X139907I-3650J0D01*
G01*
G75*
G02*
X141557Y88343I3651J-1D01*
G01*
Y94738D01*
X131263D01*
G75*
G02*
X131459Y93557I-3454J-1181D01*
G01*
G75*
G02*
X129809Y90504I-3650J0D01*
G01*
Y82437D01*
G75*
G02*
X131459Y79384I-2000J-3053D01*
G01*
G75*
G02*
X124159I-3650J0D01*
G01*
G75*
G02*
X125809Y82437I3651J-1D01*
G01*
Y90504D01*
G75*
G02*
X124159Y93557I2001J3054D01*
G01*
G75*
G02*
X124236Y94302I3652J0D01*
G01*
X124034Y94504D01*
G75*
G02*
X123833Y94738I1413J1415D01*
G01*
X89530D01*
G75*
G02*
X89727Y93557I-3454J-1181D01*
G01*
G75*
G02*
X88077Y90504I-3651J1D01*
G01*
Y77909D01*
G75*
G02*
X89727Y74856I-2000J-3053D01*
G01*
G75*
G02*
X82427I-3650J0D01*
G01*
G75*
G02*
X84077Y77909I3651J-1D01*
G01*
Y90504D01*
G75*
G02*
X82427Y93557I2000J3053D01*
G01*
G75*
G02*
X82623Y94738I3650J0D01*
G01*
X80596D01*
Y91886D01*
G75*
G02*
X82246Y88833I-2000J-3053D01*
G01*
G75*
G02*
X74946I-3650J0D01*
G01*
G75*
G02*
X76596Y91886I3651J-1D01*
G01*
Y94738D01*
X37443D01*
G37*
X165636D02*
G36*
X165636Y94738D02*
Y68360D01*
X192484D01*
Y94738D01*
X165636D01*
G37*
X199984D02*
G36*
X199984Y94738D02*
Y68360D01*
X282365D01*
G75*
G02*
X290865I4250J0D01*
G01*
X292364D01*
Y72610D01*
X292471D01*
Y90488D01*
X291970D01*
Y94738D01*
X290471D01*
G75*
G02*
X281971I-4250J0D01*
G01*
X199984D01*
G37*
X299971Y90488D02*
G36*
X299971Y90488D02*
Y72610D01*
X300864D01*
Y69414D01*
X301918Y68360D01*
X356549D01*
Y94738D01*
X300470D01*
Y90488D01*
X299971D01*
G37*
X3000Y106156D02*
G36*
X3000Y106156D02*
Y94738D01*
X26837D01*
X25159Y96415D01*
G75*
G02*
X24059Y99068I2648J2653D01*
G01*
G75*
G02*
Y99069I5013J0D01*
G01*
Y106156D01*
X18459D01*
G75*
G02*
X17487Y105368I-2140J1648D01*
G01*
G75*
G02*
X19020Y102932I-1170J-2437D01*
G01*
Y99930D01*
G75*
G02*
X16318Y97228I-2702J0D01*
G01*
X9379D01*
G75*
G02*
X6677Y99930I0J2702D01*
G01*
Y102932D01*
Y102933D01*
G75*
G02*
X8210Y105368I2701J0D01*
G01*
G75*
G02*
X7239Y106156I1170J2437D01*
G01*
X3000D01*
G37*
X31559D02*
G36*
X31559Y106156D02*
Y100622D01*
X37443Y94738D01*
X76596D01*
Y106156D01*
X71608D01*
G75*
G02*
X70636Y105368I-2140J1648D01*
G01*
G75*
G02*
X72169Y102932I-1170J-2437D01*
G01*
Y99930D01*
G75*
G02*
X69468Y97228I-2702J0D01*
G01*
X62528D01*
G75*
G02*
X59827Y99930I0J2702D01*
G01*
Y102932D01*
Y102933D01*
G75*
G02*
X61360Y105368I2701J0D01*
G01*
G75*
G02*
X60388Y106156I1170J2437D01*
G01*
X31559D01*
G37*
X80596D02*
G36*
X80596Y106156D02*
Y94738D01*
X82623D01*
G75*
G02*
X89530I3454J-1181D01*
G01*
X123833D01*
G75*
G02*
X123447Y95919I1614J1181D01*
G01*
Y106156D01*
X95153D01*
G75*
G02*
X95239Y105368I-3564J-787D01*
G01*
G75*
G02*
X87939I-3650J0D01*
G01*
G75*
G02*
X88025Y106156I3651J-2D01*
G01*
X80596D01*
G37*
X127447Y104373D02*
G36*
X127447Y104373D02*
Y97189D01*
G75*
G02*
X131263Y94738I362J-3632D01*
G01*
X141557D01*
Y106156D01*
X139258D01*
Y102516D01*
G75*
G02*
X140908Y99463I-2000J-3053D01*
G01*
G75*
G02*
X133608I-3650J0D01*
G01*
G75*
G02*
X135258Y102516I3651J-1D01*
G01*
Y106156D01*
X134523D01*
G75*
G02*
X134609Y105368I-3564J-787D01*
G01*
G75*
G02*
X127447Y104373I-3650J0D01*
G01*
G37*
X145557Y106156D02*
G36*
X145557Y106156D02*
Y94738D01*
X152133D01*
G75*
G02*
X153762Y97398I3630J-394D01*
G01*
Y106156D01*
X145557D01*
G37*
X157762D02*
G36*
X157762Y106156D02*
Y97398D01*
G75*
G02*
X159391Y94738I-2000J-3053D01*
G01*
X161636D01*
Y106156D01*
X157762D01*
G37*
X165636D02*
G36*
X165636Y106156D02*
Y94738D01*
X192484D01*
Y104264D01*
G75*
G02*
X192126Y105280I3730J1885D01*
G01*
G75*
G02*
X191843Y106156I3394J1583D01*
G01*
X190434D01*
G75*
G02*
X186234Y101956I-4200J0D01*
G01*
G75*
G02*
X182034Y106156I0J4200D01*
G01*
X180435D01*
Y101955D01*
X172033D01*
Y106156D01*
X165636D01*
G37*
X199984Y104264D02*
G36*
X199984Y104264D02*
Y94738D01*
X281971D01*
G75*
G02*
X290471I4250J0D01*
G01*
X291970D01*
Y98988D01*
X292563D01*
Y106156D01*
X250434D01*
G75*
G02*
X246234Y101956I-4200J0D01*
G01*
G75*
G02*
X242034Y106156I0J4200D01*
G01*
X240434D01*
G75*
G02*
X236234Y101956I-4200J0D01*
G01*
G75*
G02*
X232034Y106156I0J4200D01*
G01*
X230434D01*
G75*
G02*
X226234Y101956I-4200J0D01*
G01*
G75*
G02*
X222034Y106156I0J4200D01*
G01*
X220434D01*
G75*
G02*
X216234Y101956I-4200J0D01*
G01*
G75*
G02*
X212034Y106156I0J4200D01*
G01*
X210434D01*
G75*
G02*
X206234Y101956I-4200J0D01*
G01*
G75*
G02*
X202034Y106156I0J4200D01*
G01*
X200434D01*
G75*
G02*
X199984Y104264I-4200J0D01*
G01*
G37*
X300063Y106156D02*
G36*
X300063Y106156D02*
Y98988D01*
X300470D01*
Y94738D01*
X356549D01*
X391201D01*
Y106156D01*
X300063D01*
G37*
X3000Y113242D02*
G36*
X3000Y113242D02*
Y106156D01*
X7239D01*
G75*
G02*
X6677Y107804I2141J1649D01*
G01*
Y110806D01*
Y110807D01*
G75*
G02*
X8210Y113242I2701J0D01*
G01*
X3000D01*
G37*
X19020Y110806D02*
G36*
X19020Y110806D02*
Y107804D01*
Y107804D01*
G75*
G02*
X18459Y106156I-2701J0D01*
G01*
X24059D01*
Y113242D01*
X17487D01*
G75*
G02*
X19020Y110806I-1170J-2437D01*
G01*
G37*
X31559Y113242D02*
G36*
X31559Y113242D02*
Y106156D01*
X60388D01*
G75*
G02*
X59827Y107804I2141J1649D01*
G01*
Y110806D01*
Y110807D01*
G75*
G02*
X61360Y113242I2701J0D01*
G01*
X31559D01*
G37*
X72169Y110806D02*
G36*
X72169Y110806D02*
Y107804D01*
Y107804D01*
G75*
G02*
X71608Y106156I-2701J0D01*
G01*
X76596D01*
Y113242D01*
X70636D01*
G75*
G02*
X72169Y110806I-1170J-2437D01*
G01*
G37*
X80596Y113242D02*
G36*
X80596Y113242D02*
Y106156D01*
X88025D01*
G75*
G02*
X89589Y108421I3565J-788D01*
G01*
Y113242D01*
X80596D01*
G37*
X93589D02*
G36*
X93589Y113242D02*
Y108421D01*
G75*
G02*
X95153Y106156I-2000J-3053D01*
G01*
X123447D01*
Y113242D01*
X93589D01*
G37*
X132959Y112157D02*
G36*
X132959Y112157D02*
Y108421D01*
G75*
G02*
X134523Y106156I-2000J-3053D01*
G01*
X135258D01*
Y113242D01*
X134032D01*
G75*
G02*
X132959Y112157I-3075J1970D01*
G01*
G37*
X139258Y113242D02*
G36*
X139258Y113242D02*
Y106156D01*
X141557D01*
Y113242D01*
X139258D01*
G37*
X145557D02*
G36*
X145557Y113242D02*
Y106156D01*
X153762D01*
Y113242D01*
X145557D01*
G37*
X157762D02*
G36*
X157762Y113242D02*
Y106156D01*
X161636D01*
Y109688D01*
G75*
G02*
X161242Y110879I1604J1191D01*
G01*
G75*
G02*
Y110880I2115J1D01*
G01*
Y110881D01*
Y110884D01*
Y113242D01*
X157762D01*
G37*
X165242D02*
G36*
X165242Y113242D02*
Y111678D01*
G75*
G02*
X165636Y110487I-1604J-1191D01*
G01*
G75*
G02*
Y110486I-2115J0D01*
G01*
Y110485D01*
Y110482D01*
Y106156D01*
X172033D01*
Y110356D01*
X180435D01*
Y106156D01*
X182034D01*
G75*
G02*
X186234Y110356I4200J0D01*
G01*
G75*
G02*
X190434Y106156I0J-4200D01*
G01*
X191843D01*
G75*
G02*
X191776Y106863I3679J707D01*
G01*
G75*
G02*
Y106864I3562J1D01*
G01*
Y106866D01*
Y106870D01*
Y113242D01*
X165242D01*
G37*
X199276D02*
G36*
X199276Y113242D02*
Y109052D01*
G75*
G02*
X200434Y106156I-3041J-2896D01*
G01*
X202034D01*
G75*
G02*
X206234Y110356I4200J0D01*
G01*
G75*
G02*
X210434Y106156I0J-4200D01*
G01*
X212034D01*
G75*
G02*
X213998Y109711I4200J0D01*
G01*
Y113242D01*
X199276D01*
G37*
X217998D02*
G36*
X217998Y113242D02*
Y109967D01*
G75*
G02*
X220434Y106156I-1764J-3812D01*
G01*
X222034D01*
G75*
G02*
X226234Y110356I4200J0D01*
G01*
G75*
G02*
X230434Y106156I0J-4200D01*
G01*
X232034D01*
G75*
G02*
X234077Y109759I4200J0D01*
G01*
Y113242D01*
X217998D01*
G37*
X238077D02*
G36*
X238077Y113242D02*
Y109930D01*
G75*
G02*
X240434Y106156I-1843J-3774D01*
G01*
X242034D01*
G75*
G02*
X246234Y110356I4200J0D01*
G01*
G75*
G02*
X250434Y106156I0J-4200D01*
G01*
X292563D01*
Y109720D01*
X289040Y113242D01*
X238077D01*
G37*
X300063Y111274D02*
G36*
X300063Y111274D02*
Y106156D01*
X391201D01*
Y113242D01*
X379909D01*
Y107992D01*
X369409D01*
Y111006D01*
G75*
G02*
X359659Y111641I-4750J2236D01*
G01*
G75*
G02*
X349659I-5000J1601D01*
G01*
G75*
G02*
X339409Y113242I-5000J1601D01*
G01*
X299505D01*
G75*
G02*
X300063Y111274I-3193J-1969D01*
G01*
G37*
X3000Y130762D02*
G36*
X3000Y130762D02*
Y113242D01*
X8210D01*
G75*
G02*
X6677Y115678I1170J2437D01*
G01*
Y118680D01*
Y118681D01*
G75*
G02*
X8210Y121116I2701J0D01*
G01*
G75*
G02*
X6677Y123552I1170J2437D01*
G01*
Y126554D01*
Y126555D01*
G75*
G02*
X8210Y128990I2701J0D01*
G01*
G75*
G02*
X6760Y130762I1170J2437D01*
G01*
X3000D01*
G37*
X17815Y121303D02*
G36*
X17815Y121303D02*
G75*
G02*
X17487Y121116I-1499J2253D01*
G01*
G75*
G02*
X19020Y118680I-1170J-2437D01*
G01*
Y115678D01*
Y115678D01*
G75*
G02*
X17487Y113242I-2701J0D01*
G01*
X24059D01*
Y120350D01*
X23106Y121303D01*
X17815D01*
G37*
X17487Y128990D02*
G36*
X17487Y128990D02*
G75*
G02*
X17815Y128803I-1170J-2440D01*
G01*
X24659D01*
G75*
G02*
X27313Y127703I1J-3748D01*
G01*
X30459Y124557D01*
G75*
G02*
X31559Y121905I-2648J-2653D01*
G01*
G75*
G02*
Y121904I-4511J0D01*
G01*
Y113242D01*
X61360D01*
G75*
G02*
X59827Y115678I1170J2437D01*
G01*
Y118680D01*
Y118681D01*
G75*
G02*
X61360Y121116I2701J0D01*
G01*
G75*
G02*
X59827Y123552I1170J2437D01*
G01*
Y126554D01*
Y126555D01*
G75*
G02*
X61360Y128990I2701J0D01*
G01*
G75*
G02*
X59910Y130762I1170J2437D01*
G01*
X18937D01*
G75*
G02*
X17487Y128990I-2618J664D01*
G01*
G37*
X72087Y130762D02*
G36*
X72087Y130762D02*
G75*
G02*
X70636Y128990I-2618J664D01*
G01*
G75*
G02*
X72169Y126554I-1170J-2437D01*
G01*
Y123552D01*
Y123552D01*
G75*
G02*
X70636Y121116I-2701J0D01*
G01*
G75*
G02*
X72169Y118680I-1170J-2437D01*
G01*
Y115678D01*
Y115678D01*
G75*
G02*
X70636Y113242I-2701J0D01*
G01*
X76596D01*
Y129480D01*
G75*
G02*
X75405Y130762I2000J3054D01*
G01*
X72087D01*
G37*
X80596Y129480D02*
G36*
X80596Y129480D02*
Y113242D01*
X89589D01*
Y122787D01*
G75*
G02*
X87939Y125841I2000J3053D01*
G01*
G75*
G02*
X95239I3650J0D01*
G01*
G75*
G02*
X93589Y122787I-3651J1D01*
G01*
Y113242D01*
X123447D01*
Y120722D01*
G75*
G02*
X124034Y122138I2000J0D01*
G01*
X125809Y123913D01*
Y130762D01*
X121148D01*
Y122297D01*
G75*
G02*
X120560Y120881I-2000J0D01*
G01*
X117996Y118318D01*
G75*
G02*
X118073Y117573I-3585J-746D01*
G01*
G75*
G02*
X110773I-3650J0D01*
G01*
G75*
G02*
X115168Y121146I3650J0D01*
G01*
X117148Y123126D01*
Y130762D01*
X81787D01*
G75*
G02*
X80596Y129480I-3192J1772D01*
G01*
G37*
X127447Y119894D02*
G36*
X127447Y119894D02*
Y116206D01*
G75*
G02*
X134609Y115211I3512J-995D01*
G01*
G75*
G02*
X134032Y113242I-3651J0D01*
G01*
X135258D01*
Y117276D01*
G75*
G02*
X133608Y120329I2000J3053D01*
G01*
G75*
G02*
X140908I3650J0D01*
G01*
G75*
G02*
X139258Y117276I-3651J1D01*
G01*
Y113242D01*
X141557D01*
Y130762D01*
X129809D01*
Y123085D01*
G75*
G02*
X129222Y121669I-2000J0D01*
G01*
X127447Y119894D01*
G37*
X145557Y130762D02*
G36*
X145557Y130762D02*
Y113242D01*
X153762D01*
Y122000D01*
G75*
G02*
X152112Y125053I2000J3053D01*
G01*
G75*
G02*
X153289Y127737I3650J0D01*
G01*
G75*
G02*
X150191Y130762I505J3615D01*
G01*
X145557D01*
G37*
X157395D02*
G36*
X157395Y130762D02*
G75*
G02*
X156267Y128668I-3602J591D01*
G01*
G75*
G02*
X159412Y125053I-505J-3615D01*
G01*
G75*
G02*
X157762Y122000I-3650J0D01*
G01*
Y113242D01*
X161242D01*
Y130762D01*
X157395D01*
G37*
X165242D02*
G36*
X165242Y130762D02*
Y113242D01*
X191776D01*
Y130762D01*
X165242D01*
G37*
X199276D02*
G36*
X199276Y130762D02*
Y113242D01*
X213998D01*
Y130762D01*
X199276D01*
G37*
X217998D02*
G36*
X217998Y130762D02*
Y113242D01*
X234077D01*
Y122000D01*
G75*
G02*
X232427Y125053I2000J3053D01*
G01*
G75*
G02*
X239727I3650J0D01*
G01*
G75*
G02*
X238077Y122000I-3651J1D01*
G01*
Y113242D01*
X289040D01*
X286668Y115614D01*
G75*
G02*
X285567Y118268I2650J2654D01*
G01*
Y130762D01*
X217998D01*
G37*
X293067D02*
G36*
X293067Y130762D02*
Y119822D01*
X298962Y113928D01*
G75*
G02*
X299505Y113242I-2650J-2655D01*
G01*
X339409D01*
G75*
G02*
X349659Y114843I5250J0D01*
G01*
G75*
G02*
X359659I5000J-1601D01*
G01*
G75*
G02*
X369409Y115478I5000J-1601D01*
G01*
Y118492D01*
X379909D01*
Y113242D01*
X391201D01*
Y130762D01*
X293067D01*
G37*
X3000Y179384D02*
G36*
X3000Y179384D02*
Y130762D01*
X6760D01*
G75*
G02*
X6677Y131426I2620J665D01*
G01*
Y134428D01*
Y134429D01*
G75*
G02*
X8210Y136864I2701J0D01*
G01*
G75*
G02*
X6677Y139300I1170J2437D01*
G01*
Y142302D01*
Y142303D01*
G75*
G02*
X8210Y144738I2701J0D01*
G01*
G75*
G02*
X6677Y147174I1170J2437D01*
G01*
Y150176D01*
Y150177D01*
G75*
G02*
X8210Y152612I2701J0D01*
G01*
G75*
G02*
X6677Y155048I1170J2437D01*
G01*
Y158050D01*
G75*
G02*
X9379Y160752I2702J0D01*
G01*
X16318D01*
G75*
G02*
X19020Y158050I0J-2702D01*
G01*
Y155048D01*
Y155048D01*
G75*
G02*
X17487Y152612I-2701J0D01*
G01*
G75*
G02*
X19020Y150176I-1170J-2437D01*
G01*
Y147174D01*
Y147174D01*
G75*
G02*
X17487Y144738I-2701J0D01*
G01*
G75*
G02*
X19020Y142302I-1170J-2437D01*
G01*
Y139300D01*
Y139300D01*
G75*
G02*
X17487Y136864I-2701J0D01*
G01*
G75*
G02*
X19020Y134428I-1170J-2437D01*
G01*
Y131426D01*
Y131426D01*
G75*
G02*
X18937Y130762I-2701J-1D01*
G01*
X59910D01*
G75*
G02*
X59827Y131426I2620J665D01*
G01*
Y134428D01*
Y134429D01*
G75*
G02*
X61360Y136864I2701J0D01*
G01*
G75*
G02*
X59827Y139300I1170J2437D01*
G01*
Y142302D01*
Y142303D01*
G75*
G02*
X61360Y144738I2701J0D01*
G01*
G75*
G02*
X59827Y147174I1170J2437D01*
G01*
Y150176D01*
Y150177D01*
G75*
G02*
X61360Y152612I2701J0D01*
G01*
G75*
G02*
X59827Y155048I1170J2437D01*
G01*
Y158050D01*
G75*
G02*
X62528Y160752I2702J0D01*
G01*
X69468D01*
G75*
G02*
X72169Y158050I0J-2702D01*
G01*
Y155048D01*
Y155048D01*
G75*
G02*
X70636Y152612I-2701J0D01*
G01*
G75*
G02*
X72169Y150176I-1170J-2437D01*
G01*
Y147174D01*
Y147174D01*
G75*
G02*
X70636Y144738I-2701J0D01*
G01*
G75*
G02*
X72169Y142302I-1170J-2437D01*
G01*
Y139300D01*
Y139300D01*
G75*
G02*
X70636Y136864I-2701J0D01*
G01*
G75*
G02*
X72169Y134428I-1170J-2437D01*
G01*
Y131426D01*
Y131426D01*
G75*
G02*
X72087Y130762I-2701J-1D01*
G01*
X75405D01*
G75*
G02*
X74946Y132533I3191J1771D01*
G01*
G75*
G02*
X82246I3650J0D01*
G01*
G75*
G02*
X81787Y130762I-3651J1D01*
G01*
X117148D01*
Y140898D01*
G75*
G02*
X115498Y143951I2000J3053D01*
G01*
G75*
G02*
X122798I3650J0D01*
G01*
G75*
G02*
X121148Y140898I-3651J1D01*
G01*
Y130762D01*
X125809D01*
Y135386D01*
G75*
G02*
X124159Y138439I2000J3053D01*
G01*
G75*
G02*
X131459I3650J0D01*
G01*
G75*
G02*
X129809Y135386I-3651J1D01*
G01*
Y130762D01*
X141557D01*
Y135386D01*
G75*
G02*
X139907Y138439I2000J3053D01*
G01*
G75*
G02*
X147207I3650J0D01*
G01*
G75*
G02*
X145557Y135386I-3651J1D01*
G01*
Y130762D01*
X150191D01*
G75*
G02*
X150143Y131352I3602J590D01*
G01*
G75*
G02*
X151793Y134406I3650J0D01*
G01*
Y172680D01*
G75*
G02*
X151400Y173871I1604J1191D01*
G01*
G75*
G02*
Y173872I2115J1D01*
G01*
Y187061D01*
X122329D01*
Y185193D01*
G75*
G02*
X123979Y182140I-2000J-3053D01*
G01*
G75*
G02*
X116679I-3650J0D01*
G01*
G75*
G02*
X118329Y185193I3651J-1D01*
G01*
Y187061D01*
X94770D01*
Y162752D01*
G75*
G02*
X96420Y159699I-2000J-3053D01*
G01*
G75*
G02*
X89120I-3650J0D01*
G01*
G75*
G02*
X90770Y162752I3651J-1D01*
G01*
Y185616D01*
G75*
G02*
X84531Y187061I-2724J2430D01*
G01*
X82959D01*
Y169976D01*
X84544Y168390D01*
G75*
G02*
X88939Y164817I745J-3573D01*
G01*
G75*
G02*
X81639I-3650J0D01*
G01*
G75*
G02*
X81716Y165562I3661J-1D01*
G01*
X79546Y167732D01*
G75*
G02*
X78959Y169148I1413J1416D01*
G01*
Y187061D01*
X37652D01*
Y179384D01*
X3000D01*
G37*
X155400Y187061D02*
G36*
X155400Y187061D02*
Y175064D01*
G75*
G02*
X155793Y173873I-1604J-1191D01*
G01*
G75*
G02*
Y173872I-2115J0D01*
G01*
Y134406D01*
G75*
G02*
X157443Y131352I-2000J-3053D01*
G01*
G75*
G02*
X157395Y130762I-3651J0D01*
G01*
X161242D01*
Y177118D01*
G75*
G02*
X159592Y180171I2000J3053D01*
G01*
G75*
G02*
X166892I3650J0D01*
G01*
G75*
G02*
X165242Y177118I-3651J1D01*
G01*
Y130762D01*
X191776D01*
Y154626D01*
G75*
G02*
X191476Y156156I3749J1530D01*
G01*
G75*
G02*
X191776Y157685I4049J0D01*
G01*
Y173130D01*
G75*
G02*
X191476Y174659I3749J1530D01*
G01*
G75*
G02*
X191776Y176189I4049J0D01*
G01*
Y187061D01*
X155400D01*
G37*
X199276Y154626D02*
G36*
X199276Y154626D02*
Y130762D01*
X213998D01*
Y136961D01*
G75*
G02*
X212348Y140014I2000J3053D01*
G01*
G75*
G02*
X219648I3650J0D01*
G01*
G75*
G02*
X217998Y136961I-3651J1D01*
G01*
Y130762D01*
X285567D01*
Y187061D01*
X269673D01*
Y183976D01*
X266659D01*
G75*
G02*
X269673Y179226I-2236J-4750D01*
G01*
G75*
G02*
X266024Y174226I-5250J0D01*
G01*
G75*
G02*
X269673Y169226I-1601J-5000D01*
G01*
G75*
G02*
X266024Y164226I-5250J0D01*
G01*
G75*
G02*
X269673Y159226I-1601J-5000D01*
G01*
G75*
G02*
X266024Y154226I-5250J0D01*
G01*
G75*
G02*
X269673Y149226I-1601J-5000D01*
G01*
G75*
G02*
X266024Y144226I-5250J0D01*
G01*
G75*
G02*
X269673Y139226I-1602J-5001D01*
G01*
G75*
G02*
X259173I-5250J0D01*
G01*
G75*
G02*
X262822Y144226I5251J-1D01*
G01*
G75*
G02*
X259478Y147463I1599J4998D01*
G01*
X244344D01*
G75*
G02*
X242929Y148050I0J2000D01*
G01*
X236633Y154346D01*
G75*
G02*
X236045Y155762I1413J1416D01*
G01*
Y179480D01*
G75*
G02*
X234395Y182533I2000J3053D01*
G01*
G75*
G02*
X241695I3650J0D01*
G01*
G75*
G02*
X240045Y179480I-3651J1D01*
G01*
Y156590D01*
X245173Y151463D01*
X259673D01*
G75*
G02*
X262822Y154226I4749J-2235D01*
G01*
G75*
G02*
X259537Y157305I1600J4999D01*
G01*
X249072D01*
G75*
G02*
X247550Y158004I-4J1998D01*
G01*
X245188Y160759D01*
G75*
G02*
X244707Y162061I1522J1303D01*
G01*
Y182630D01*
G75*
G02*
X243057Y185683I2000J3053D01*
G01*
G75*
G02*
X243327Y187061I3650J0D01*
G01*
X199276D01*
Y176189D01*
G75*
G02*
X199576Y174659I-3749J-1530D01*
G01*
G75*
G02*
X199276Y173130I-4049J0D01*
G01*
Y157685D01*
G75*
G02*
X199576Y156156I-3749J-1530D01*
G01*
G75*
G02*
X199276Y154626I-4049J0D01*
G01*
G37*
X248707Y182630D02*
G36*
X248707Y182630D02*
Y162801D01*
X249989Y161305D01*
X259602D01*
G75*
G02*
X262822Y164226I4821J-2079D01*
G01*
G75*
G02*
X259173Y169226I1601J5000D01*
G01*
G75*
G02*
X262822Y174226I5250J0D01*
G01*
G75*
G02*
X259173Y179226I1601J5000D01*
G01*
G75*
G02*
X262187Y183976I5250J0D01*
G01*
X259173D01*
Y187061D01*
X250087D01*
G75*
G02*
X250357Y185683I-3380J-1378D01*
G01*
G75*
G02*
X248707Y182630I-3651J1D01*
G01*
G37*
X293067Y187061D02*
G36*
X293067Y187061D02*
Y130762D01*
X391201D01*
Y179384D01*
X356549D01*
Y187061D01*
X293067D01*
G37*
X37652Y199541D02*
G36*
X37652Y199541D02*
Y187061D01*
X78959D01*
Y195622D01*
G75*
G02*
X77309Y198675I2000J3053D01*
G01*
G75*
G02*
X77413Y199541I3650J0D01*
G01*
X37652D01*
G37*
X82959Y195622D02*
G36*
X82959Y195622D02*
Y187061D01*
X84531D01*
G75*
G02*
X84395Y188045I3515J985D01*
G01*
G75*
G02*
X86045Y191098I3651J-1D01*
G01*
Y199541D01*
X84504D01*
G75*
G02*
X84609Y198675I-3546J-867D01*
G01*
G75*
G02*
X82959Y195622I-3651J1D01*
G01*
G37*
X93982Y199541D02*
G36*
X93982Y199541D02*
Y194385D01*
X94182Y194185D01*
G75*
G02*
X94770Y192770I-1413J-1416D01*
G01*
Y187061D01*
X118329D01*
Y199541D01*
X93982D01*
G37*
X122329D02*
G36*
X122329Y199541D02*
Y187061D01*
X151400D01*
Y199541D01*
X122329D01*
G37*
X155400D02*
G36*
X155400Y199541D02*
Y187061D01*
X191776D01*
Y190035D01*
X190947Y190864D01*
G75*
G02*
X189846Y193517I2648J2653D01*
G01*
G75*
G02*
Y193518I5013J0D01*
G01*
Y199465D01*
G75*
G02*
X189846Y199541I3749J77D01*
G01*
Y199541D01*
X184904D01*
G75*
G02*
X176829I-4038J315D01*
G01*
X155400D01*
G37*
X197346Y199465D02*
G36*
X197346Y199465D02*
Y195071D01*
X198175Y194243D01*
G75*
G02*
X199276Y191590I-2648J-2653D01*
G01*
G75*
G02*
Y191589I-4511J0D01*
G01*
Y187061D01*
X243327D01*
G75*
G02*
X250087I3380J-1378D01*
G01*
X259173D01*
Y194476D01*
X269673D01*
Y187061D01*
X285567D01*
Y199541D01*
X206854D01*
G75*
G02*
X200024I-3415J0D01*
G01*
X197347D01*
Y199541D01*
G75*
G02*
X197346Y199465I-3750J0D01*
G01*
G37*
X293067Y199541D02*
G36*
X293067Y199541D02*
Y187061D01*
X356549D01*
Y199541D01*
X293067D01*
G37*
X37652Y214285D02*
G36*
X37652Y214285D02*
Y199541D01*
X77413D01*
G75*
G02*
X84504I3546J-866D01*
G01*
X86045D01*
Y211370D01*
G75*
G02*
X84395Y214423I2000J3053D01*
G01*
G75*
G02*
X84972Y216392I3650J0D01*
G01*
X81459D01*
G75*
G02*
X80959Y215244I-2469J394D01*
G01*
Y214817D01*
X80531D01*
G75*
G02*
X78990Y214285I-1541J1969D01*
G01*
X37652D01*
G37*
X91695Y214423D02*
G36*
X91695Y214423D02*
G75*
G02*
X90724Y211944I-3652J1D01*
G01*
G75*
G02*
X95632Y208518I1258J-3426D01*
G01*
G75*
G02*
X93982Y205465I-3650J0D01*
G01*
Y199541D01*
X118329D01*
Y216392D01*
X91119D01*
G75*
G02*
X91695Y214423I-3074J-1969D01*
G01*
G37*
X122329Y216392D02*
G36*
X122329Y216392D02*
Y199541D01*
X151400D01*
Y213339D01*
G75*
G02*
X149750Y216392I2000J3053D01*
G01*
X122329D01*
G37*
X155400Y213339D02*
G36*
X155400Y213339D02*
Y199541D01*
X176829D01*
G75*
G02*
X176817Y199856I4038J314D01*
G01*
G75*
G02*
Y199857I4101J0D01*
G01*
G75*
G02*
X177117Y201386I4045J0D01*
G01*
Y212142D01*
X176616D01*
Y216392D01*
X175117D01*
G75*
G02*
X166617I-4250J0D01*
G01*
X157050D01*
G75*
G02*
X155400Y213339I-3651J1D01*
G01*
G37*
X184617Y212142D02*
G36*
X184617Y212142D02*
Y201386D01*
G75*
G02*
X184917Y199858I-3741J-1528D01*
G01*
G75*
G02*
Y199856I-4101J-1D01*
G01*
G75*
G02*
X184904Y199541I-4050J-1D01*
G01*
X189846D01*
G75*
G02*
X193596Y203292I3751J0D01*
G01*
G75*
G02*
X197347Y199541I0J-3751D01*
G01*
X200024D01*
G75*
G02*
X206854I3415J0D01*
G01*
X285567D01*
Y216392D01*
X185116D01*
Y212142D01*
X184617D01*
G37*
X293067Y216392D02*
G36*
X293067Y216392D02*
Y199541D01*
X356549D01*
Y214285D01*
X315211D01*
G75*
G02*
X313670Y214817I0J2500D01*
G01*
X313242D01*
Y215244D01*
G75*
G02*
X312742Y216392I1969J1541D01*
G01*
X293067D01*
G37*
X81490Y216785D02*
G36*
X81490Y216785D02*
G75*
G02*
X81459Y216392I-2500J0D01*
G01*
X84972D01*
G75*
G02*
X91119I3074J-1969D01*
G01*
X118329D01*
Y220722D01*
X81490D01*
Y216785D01*
G37*
X122329Y220722D02*
G36*
X122329Y220722D02*
Y216392D01*
X149750D01*
G75*
G02*
X157050I3650J0D01*
G01*
X166617D01*
G75*
G02*
X175117I4250J0D01*
G01*
X176616D01*
Y220642D01*
X185116D01*
Y216392D01*
X285567D01*
Y216472D01*
X285069D01*
Y220722D01*
X122329D01*
G37*
X293067Y216472D02*
G36*
X293067Y216472D02*
Y216392D01*
X312742D01*
G75*
G02*
X312711Y216785I2469J393D01*
G01*
Y220722D01*
X303569D01*
G75*
G02*
X295069I-4250J0D01*
G01*
X293569D01*
Y216472D01*
X293067D01*
G37*
X81490Y254187D02*
G36*
X81490Y254187D02*
Y220722D01*
X118329D01*
Y226724D01*
G75*
G02*
X116679Y229778I2000J3053D01*
G01*
G75*
G02*
X123979I3650J0D01*
G01*
G75*
G02*
X122329Y226724I-3651J1D01*
G01*
Y220722D01*
X285069D01*
Y224972D01*
X293569D01*
Y220722D01*
X295069D01*
G75*
G02*
X303569I4250J0D01*
G01*
X312711D01*
Y254187D01*
X301665D01*
G75*
G02*
X303569Y250644I-2347J-3543D01*
G01*
G75*
G02*
X295069I-4250J0D01*
G01*
G75*
G02*
X296972Y254187I4250J0D01*
G01*
X293569D01*
Y246394D01*
X285069D01*
Y254187D01*
X262232D01*
G75*
G02*
X263819Y250644I-3163J-3543D01*
G01*
G75*
G02*
X254319I-4750J0D01*
G01*
G75*
G02*
X255906Y254187I4750J0D01*
G01*
X252232D01*
G75*
G02*
X253819Y250644I-3163J-3543D01*
G01*
G75*
G02*
X244319I-4750J0D01*
G01*
G75*
G02*
X245906Y254187I4750J0D01*
G01*
X242232D01*
G75*
G02*
X243819Y250644I-3163J-3543D01*
G01*
G75*
G02*
X234319I-4750J0D01*
G01*
G75*
G02*
X235906Y254187I4750J0D01*
G01*
X191284D01*
G75*
G02*
X192165Y251431I-3869J-2756D01*
G01*
G75*
G02*
X182665I-4750J0D01*
G01*
G75*
G02*
X183546Y254187I4750J0D01*
G01*
X181284D01*
G75*
G02*
X182165Y251431I-3869J-2756D01*
G01*
G75*
G02*
X172665I-4750J0D01*
G01*
G75*
G02*
X173546Y254187I4750J0D01*
G01*
X171284D01*
G75*
G02*
X172165Y251431I-3869J-2756D01*
G01*
G75*
G02*
X162665I-4750J0D01*
G01*
G75*
G02*
X163546Y254187I4750J0D01*
G01*
X134815D01*
Y247274D01*
X126315D01*
Y254187D01*
X114757D01*
G75*
G02*
X106257I-4250J0D01*
G01*
X100909D01*
Y249984D01*
X92504D01*
Y254187D01*
X81490D01*
G37*
Y261523D02*
G36*
X81490Y261523D02*
Y254187D01*
X92504D01*
Y258390D01*
X100909D01*
Y254187D01*
X106257D01*
G75*
G02*
X114757I4250J0D01*
G01*
X126315D01*
Y255774D01*
X134815D01*
Y254187D01*
X163546D01*
G75*
G02*
X171284I3869J-2756D01*
G01*
X173546D01*
G75*
G02*
X181284I3869J-2756D01*
G01*
X183546D01*
G75*
G02*
X191284I3869J-2756D01*
G01*
X235906D01*
G75*
G02*
X242232I3163J-3543D01*
G01*
X245906D01*
G75*
G02*
X252232I3163J-3543D01*
G01*
X255906D01*
G75*
G02*
X262232I3163J-3543D01*
G01*
X285069D01*
Y254894D01*
X293569D01*
Y254187D01*
X296972D01*
G75*
G02*
X301665I2347J-3543D01*
G01*
X312711D01*
Y261523D01*
X134815D01*
G75*
G02*
X126315I-4250J0D01*
G01*
X81490D01*
G37*
Y271654D02*
G36*
X81490Y271654D02*
Y261523D01*
X126315D01*
G75*
G02*
X134815I4250J0D01*
G01*
X312711D01*
Y271654D01*
X81490D01*
G37*
D02*
D14*
X8427Y148675D02*
X6427D01*
X17270D02*
X19270D01*
X61577Y101431D02*
X59577D01*
X61577Y156549D02*
X59577D01*
X65998Y98978D02*
Y96978D01*
Y159002D02*
Y161002D01*
X70419Y101431D02*
X72419D01*
X70419Y156549D02*
X72419D01*
X108007Y254187D02*
X106007D01*
X110507Y251687D02*
Y249687D01*
Y256687D02*
Y258687D01*
X113007Y254187D02*
X115007D01*
X128065Y261523D02*
X126065D01*
X130565Y259023D02*
Y257023D01*
Y264023D02*
Y266023D01*
X133065Y261523D02*
X135065D01*
X136374Y33715D02*
X134374D01*
X138874Y31215D02*
Y29215D01*
Y36215D02*
Y38215D01*
X141374Y33715D02*
X143374D01*
X168367Y216392D02*
X166367D01*
X170867Y213892D02*
Y211892D01*
Y218892D02*
Y220892D01*
X173367Y216392D02*
X175367D01*
X183784Y106156D02*
X181784D01*
X186234Y103706D02*
Y101706D01*
Y108606D02*
Y110606D01*
X188684Y106156D02*
X190684D01*
X261948Y166752D02*
X260534Y165337D01*
X261948Y171701D02*
X260534Y173115D01*
X266898Y166752D02*
X268312Y165337D01*
X266898Y171701D02*
X268312Y173115D01*
X274569Y33715D02*
X272569D01*
X277022Y31262D02*
Y29262D01*
Y36167D02*
Y38167D01*
X279474Y33715D02*
X281474D01*
X283721Y94738D02*
X281721D01*
X284115Y68360D02*
X282115D01*
X286221Y92238D02*
Y90238D01*
Y97238D02*
Y99238D01*
X286615Y65860D02*
Y63860D01*
Y70860D02*
Y72860D01*
X288721Y94738D02*
X290721D01*
X289115Y68360D02*
X291115D01*
X296819Y220722D02*
X294819D01*
X296819Y250644D02*
X294819D01*
X299319Y218222D02*
Y216222D01*
Y223222D02*
Y225222D01*
Y248144D02*
Y246144D01*
Y253144D02*
Y255144D01*
X301819Y220722D02*
X303819D01*
X301819Y250644D02*
X303819D01*
X342185Y110767D02*
X340770Y109353D01*
X342185Y115717D02*
X340770Y117131D01*
X347134Y110767D02*
X348548Y109353D01*
X347134Y115717D02*
X348548Y117131D01*
D02*
D16*
X12848Y125053D02*
X24659D01*
X27809Y121904D01*
Y99069D01*
X38045Y88833D01*
Y74659D01*
X46707Y65998D01*
X80959D01*
X86470Y60486D01*
Y12848D01*
X180867Y216392D02*
Y199856D01*
X193596Y199541D02*
Y193518D01*
X195526Y191589D01*
Y174659D01*
Y156156D02*
Y106864D01*
X196234Y106156D01*
X195526Y174659D02*
Y156156D01*
X196234Y106156D02*
Y25053D01*
X289319Y220722D02*
Y118268D01*
X296313Y111274D01*
Y94830D01*
X296221Y94738D01*
Y68754D01*
X296615Y68360D01*
X304622Y33715D02*
Y60353D01*
X296615Y68360D01*
D02*
D19*
X78596Y88833D02*
Y132533D01*
X80959Y198675D02*
Y169148D01*
X85289Y164817D01*
X86077Y74856D02*
Y93557D01*
X88045Y214423D02*
Y188045D01*
X91589Y105368D02*
Y125841D01*
X91982Y208518D02*
Y193557D01*
X92770Y192770D01*
Y159699D01*
X119148Y143951D02*
Y122297D01*
X114423Y117573D01*
X120329Y182140D02*
Y229778D01*
X127809Y93557D02*
Y79384D01*
Y138439D02*
Y123085D01*
X125447Y120722D01*
Y95919D01*
X127809Y93557D01*
X130959Y115211D02*
Y105368D01*
X137258Y120329D02*
Y99463D01*
X141195Y223872D02*
Y201431D01*
X139620Y199856D01*
X143557Y138439D02*
Y85289D01*
X153793Y131352D02*
Y173872D01*
X153400D01*
Y216392D01*
X155762Y125053D02*
Y94344D01*
X163242Y180171D02*
Y110880D01*
X163636Y110486D01*
Y54187D01*
X164030Y53793D01*
Y51825D01*
X215998Y140014D02*
Y106392D01*
X216234Y106156D01*
X236077Y125053D02*
Y106313D01*
X236234Y106156D01*
X238045Y182533D02*
Y155762D01*
X244344Y149463D01*
X264187D01*
X264423Y149226D01*
X246707Y185683D02*
Y162061D01*
X249069Y159305D01*
X264344D01*
X264423Y159226D01*
D02*
D70*
X78596Y88833D03*
Y132533D03*
X80959Y198675D03*
X85289Y164817D03*
X86077Y74856D03*
Y93557D03*
X88045Y188045D03*
Y214423D03*
X91589Y105368D03*
Y125841D03*
X91982Y208518D03*
X92770Y159699D03*
X114423Y117573D03*
X119148Y143951D03*
X120329Y182140D03*
Y229778D03*
X127809Y79384D03*
Y93557D03*
Y138439D03*
X130959Y105368D03*
Y115211D03*
X137258Y99463D03*
Y120329D03*
X143557Y85289D03*
Y138439D03*
X153400Y216392D03*
X153793Y131352D03*
X155762Y94344D03*
Y125053D03*
X163242Y180171D03*
X164030Y51825D03*
X215998Y140014D03*
X236077Y125053D03*
X238045Y182533D03*
X246707Y185683D03*
D02*
D22*
X264423Y189226D03*
X374659Y113242D03*
D02*
D23*
X264423Y139226D03*
Y149226D03*
Y159226D03*
Y169226D03*
Y179226D03*
X344659Y113242D03*
X354659D03*
X364659D03*
D02*
D73*
X193596Y199541D03*
X203439D03*
D02*
D77*
X17179Y75841D03*
X19541Y196707D03*
X374659Y77809D03*
Y197888D03*
D02*
D103*
X12848Y101431D03*
Y109305D03*
Y117179D03*
Y125053D03*
Y132927D03*
Y140801D03*
Y148675D03*
Y156549D03*
X65998Y101431D03*
Y109305D03*
Y117179D03*
Y125053D03*
Y132927D03*
Y140801D03*
Y148675D03*
Y156549D03*
D02*
D104*
X110507Y254187D03*
X125074Y33715D03*
X130565Y261523D03*
X138874Y33715D03*
X170867Y216392D03*
X286221Y94738D03*
X286615Y68360D03*
X290822Y33715D03*
X299319Y220722D03*
Y250644D03*
X304622Y33715D03*
D02*
D123*
X44541Y188045D03*
X86470Y12848D03*
X99187Y141982D03*
X105092Y205368D03*
X106156Y218360D03*
X109699Y53793D03*
X139620Y199856D03*
X141195Y223872D03*
X178203Y151825D03*
X180867Y199856D03*
X195526Y156156D03*
Y174659D03*
X196234Y25053D03*
X214030Y219541D03*
X219738Y199069D03*
D02*
D125*
X96707Y254187D03*
X111274Y33715D03*
X277022D03*
D02*
D126*
X167415Y251431D03*
X177415D03*
X187415D03*
X239069Y250644D03*
X249069D03*
X259069D03*
D02*
D128*
X130565Y251523D03*
X180867Y216392D03*
X289319Y220722D03*
Y250644D03*
X296221Y94738D03*
X296615Y68360D03*
D02*
D132*
X176234Y106156D03*
D02*
D133*
X186234D03*
X196234D03*
X206234D03*
X216234D03*
X226234D03*
X236234D03*
X246234D03*
X0Y0D02*
M02*
