G04 DesignSpark PCB Gerber Version 10.0 Build 5299*
G04 #@! TF.Part,Single*
G04 #@! TF.FileFunction,Copper,L1,Top*
G04 #@! TF.FilePolarity,Positive*
%FSLAX35Y35*%
%MOIN*%
G04 #@! TA.AperFunction,SMDPad,CuDef*
%ADD20R,0.02200X0.05900*%
%ADD29R,0.02362X0.04134*%
%ADD131R,0.02441X0.05787*%
%ADD72R,0.03071X0.03858*%
%ADD26R,0.03346X0.03937*%
%ADD24R,0.03543X0.05512*%
%ADD76R,0.03937X0.04134*%
%ADD129R,0.04134X0.07087*%
%ADD75R,0.04134X0.08661*%
%ADD130R,0.04331X0.07087*%
%ADD127R,0.06890X0.10433*%
G04 #@! TA.AperFunction,ComponentPad*
%ADD125R,0.05906X0.05906*%
%ADD128R,0.06000X0.06000*%
%ADD22R,0.08000X0.08000*%
G04 #@! TD.AperFunction*
%ADD19C,0.01500*%
%ADD17C,0.02500*%
G04 #@! TA.AperFunction,ComponentPad*
%ADD73C,0.04331*%
G04 #@! TA.AperFunction,ViaPad*
%ADD70C,0.04800*%
G04 #@! TD.AperFunction*
%ADD16C,0.05000*%
G04 #@! TA.AperFunction,ComponentPad*
%AMT103*0 Rounded Rectangle Pad at angle 90*4,1,56,0.04921,-0.00984,0.04921,0.00984,0.04907,0.01222,0.04864,0.01456,0.04793,0.01682,0.04696,0.01899,0.04573,0.02103,0.04426,0.02290,0.04258,0.02458,0.04071,0.02604,0.03868,0.02727,0.03651,0.02825,0.03424,0.02896,0.03190,0.02939,0.02953,0.02953,-0.02953,0.02953,-0.03190,0.02939,-0.03424,0.02896,-0.03651,0.02825,-0.03868,0.02727,-0.04071,0.02604,-0.04258,0.02458,-0.04426,0.02290,-0.04573,0.02103,-0.04696,0.01899,-0.04793,0.01682,-0.04864,0.01456,-0.04907,0.01222,-0.04921,0.00984,-0.04921,-0.00984,-0.04907,-0.01222,-0.04864,-0.01456,-0.04793,-0.01682,-0.04696,-0.01899,-0.04573,-0.02103,-0.04426,-0.02290,-0.04258,-0.02458,-0.04071,-0.02604,-0.03868,-0.02727,-0.03651,-0.02825,-0.03424,-0.02896,-0.03190,-0.02939,-0.02953,-0.02953,0.02953,-0.02953,0.03190,-0.02939,0.03424,-0.02896,0.03651,-0.02825,0.03868,-0.02727,0.04071,-0.02604,0.04258,-0.02458,0.04426,-0.02290,0.04573,-0.02103,0.04696,-0.01899,0.04793,-0.01682,0.04864,-0.01456,0.04907,-0.01222,0.04921,-0.00984,0*%
%ADD103T103*%
G04 #@! TA.AperFunction,SMDPad,CuDef*
%ADD124R,0.04724X0.02165*%
%ADD71R,0.05900X0.02200*%
G04 #@! TA.AperFunction,ViaPad*
%ADD123C,0.05600*%
G04 #@! TA.AperFunction,ComponentPad*
%ADD133C,0.05900*%
%ADD104C,0.06000*%
%ADD126C,0.07000*%
%ADD23C,0.08000*%
G04 #@! TA.AperFunction,SMDPad,CuDef*
%ADD28R,0.03858X0.03071*%
%ADD27R,0.03937X0.03346*%
G04 #@! TA.AperFunction,ComponentPad*
%ADD77C,0.25197*%
%ADD132R,0.05900X0.05900*%
G04 #@! TD.AperFunction*
X0Y0D02*
D02*
D16*
X86470Y12848D02*
X184030D01*
X196234Y25053D01*
X96707Y254187D02*
Y247494D01*
X94344Y245132D01*
Y233450D01*
X94474Y233321D01*
X111274Y33715D02*
Y37652D01*
X101037Y47888D01*
Y48281D01*
X100250Y49069D01*
Y52219D01*
X111274Y233321D02*
X112363D01*
X130565Y251523D01*
X142862D01*
X156943Y265604D01*
X187415D01*
X160486Y25053D02*
X113636D01*
X111274Y27415D01*
Y33715D01*
X177415Y237258D02*
Y251431D01*
X180867Y199856D02*
X193281D01*
X193596Y199541D01*
X180867Y216392D02*
Y223570D01*
X177415Y227022D01*
Y237258D01*
X187415Y251431D02*
Y265604D01*
X259069D01*
X196234Y25053D02*
X160486D01*
X249463Y230171D02*
Y250250D01*
X249069Y250644D01*
X259069D02*
Y265604D01*
X285683D01*
X288833Y262455D01*
Y251130D01*
X289319Y250644D01*
X264423Y179226D02*
X255604D01*
X253400Y177022D01*
Y176628D01*
X251431Y174659D01*
X195526D01*
X289319Y220722D02*
X270722D01*
X260880Y230565D01*
X249856D01*
X249463Y230171D01*
D02*
D17*
X7789Y170722D02*
Y170801D01*
X13596Y176608D01*
X12848Y148675D02*
X6549D01*
X4187Y151037D01*
Y167120D01*
X7789Y170722D01*
X13596Y176608D02*
Y176530D01*
X19404Y170722D01*
X70132Y179778D02*
X65998D01*
X64817Y178596D01*
Y157730D01*
X65998Y156549D01*
X99187Y148437D02*
Y141982D01*
X147100Y223872D02*
Y237061D01*
X146904Y237258D01*
X168480Y151193D02*
X177571D01*
X178203Y151825D01*
X288360Y179187D02*
X337061D01*
X377415Y138833D01*
Y126431D01*
X377612Y126234D01*
D02*
D19*
X12848Y156549D02*
Y163970D01*
X13596Y164719D01*
X44541Y198675D02*
Y188045D01*
Y208518D02*
Y198675D01*
X50447D02*
X59305D01*
X50447Y208518D02*
X59305D01*
X67179Y198675D02*
X80959D01*
X67179Y208518D02*
X91982D01*
X73872Y171116D02*
Y165998D01*
X76628Y163242D01*
Y144344D01*
X73085Y140801D01*
X65998D01*
X77612Y179778D02*
Y188439D01*
X78596Y132533D02*
X66392D01*
X65998Y132927D01*
X85289Y164817D02*
X101431D01*
X107337Y158911D01*
X111667D01*
X86077Y93557D02*
X127809D01*
X88045Y188045D02*
X83911D01*
X83518Y188439D01*
X91589Y125841D02*
X66785D01*
X65998Y125053D01*
X92770Y159699D02*
X102612D01*
X106549Y155762D01*
X111667D01*
X93557Y74856D02*
X86077D01*
X97613Y193910D02*
X105092D01*
X97613Y199816D02*
Y207456D01*
X100250Y210093D01*
X117179D01*
X117967Y210880D01*
X189226D01*
X190801Y212455D01*
X242770D01*
X249463Y219148D01*
Y230171D01*
X100250Y52219D02*
Y59305D01*
X100644Y59699D01*
Y68951D01*
X93557D01*
X105092Y199816D02*
Y205368D01*
Y199816D02*
X111983D01*
X112180Y199619D01*
X106156Y59699D02*
Y55368D01*
X106549Y54974D01*
X108518D01*
X109699Y53793D01*
X106156Y59699D02*
X110880D01*
X112061Y60880D01*
X118951D01*
X119148Y61077D01*
X111667Y149463D02*
X104148Y149461D01*
X103124Y148437D01*
X99187Y148437D01*
X111667Y152612D02*
X104857Y152611D01*
X103518Y153950D01*
X99187Y153949D01*
X112180Y194107D02*
X105289D01*
X105092Y193910D01*
X113439Y217967D02*
X106549D01*
X106156Y218360D01*
X113439Y217967D02*
Y224069D01*
X113636Y224266D01*
X114423Y117573D02*
X66392D01*
X65998Y117179D01*
X118360Y175053D02*
X117179D01*
X112455Y179778D01*
Y193832D01*
X112180Y194107D01*
X119148Y64817D02*
X112455D01*
X108518Y68754D01*
X100841D01*
X100644Y68951D01*
X119148Y68557D02*
X116195D01*
X109699Y75053D01*
X100841D01*
X100644Y74856D01*
X119148Y224266D02*
Y218163D01*
X119344Y217967D01*
X123085D01*
Y223478D01*
X126431D01*
X120329Y229778D02*
Y225447D01*
X119148Y224266D01*
X121510Y130171D02*
Y114423D01*
X125841Y110093D01*
X166785D01*
X169148Y112455D01*
X203793D01*
X206156Y110093D01*
Y106234D01*
X206234Y106156D01*
X121510Y175053D02*
Y180959D01*
X120329Y182140D01*
X123991Y194107D02*
X119779D01*
X117967Y195919D01*
Y204581D01*
X119541Y206156D01*
X203400D01*
X124659Y175053D02*
Y189894D01*
X123992Y190564D01*
X123991Y194107D01*
X125074Y33715D02*
Y52436D01*
X125250Y52612D01*
X127809Y130171D02*
Y138439D01*
Y175053D02*
X127809Y188083D01*
X129896Y190169D01*
Y194106D01*
X129384Y64817D02*
X141982D01*
X143163Y63636D01*
Y58911D01*
X129384Y68557D02*
Y77809D01*
X127809Y79384D01*
X129896Y199618D02*
X123991D01*
X123991Y199619D01*
X130959Y105368D02*
X91589D01*
X130959Y115211D02*
X140014D01*
X141982Y117179D01*
X221510D01*
X226628Y112061D01*
Y106549D01*
X226234Y106156D01*
X130959Y130171D02*
Y115211D01*
Y175053D02*
Y186864D01*
X136077Y191982D01*
X261667D01*
X264423Y189226D01*
X131156Y52612D02*
X137455D01*
X132337Y223478D02*
Y249752D01*
X130565Y251523D01*
X134108Y130171D02*
Y120329D01*
X137258D01*
X134108Y175053D02*
Y184502D01*
X138045Y188439D01*
X243951D01*
X246707Y185683D01*
X137258Y99463D02*
X87652D01*
X77809Y109305D01*
X65998D01*
X137258Y120329D02*
X239620D01*
X246313Y113636D01*
Y106234D01*
X246234Y106156D01*
X137258Y175053D02*
Y183321D01*
X139620Y185683D01*
X234896D01*
X238045Y182533D01*
X137455Y52612D02*
Y58715D01*
X137652Y58911D01*
X135683Y60880D01*
X129581D01*
X129384Y61077D01*
X139620Y199856D02*
X130134D01*
X129896Y199618D01*
X139620Y199856D02*
X146116D01*
X140407Y130171D02*
Y124266D01*
X154187D01*
X154974Y125053D01*
X155762D01*
X140407Y175053D02*
Y181746D01*
X141589Y182927D01*
X160486D01*
X163242Y180171D01*
X143163Y58911D02*
Y52809D01*
X143360Y52612D01*
Y44935D01*
X139226Y40801D01*
Y34067D01*
X138874Y33715D01*
X143557Y85289D02*
X120329D01*
X119148Y84108D01*
Y68557D01*
X143557Y130171D02*
Y138439D01*
X147100Y223872D02*
X141195D01*
X149856Y130171D02*
X152612D01*
X153793Y131352D01*
X152022Y199856D02*
Y196510D01*
X150644Y195132D01*
X130922D01*
X129896Y194106D01*
X153400Y216392D02*
X127022D01*
X123872Y213242D01*
X95526D01*
X94344Y214423D01*
X88045D01*
X155762Y94344D02*
X138045D01*
X132533Y88833D01*
X78596D01*
X155762Y125053D02*
X236077D01*
X156549Y140014D02*
X152219D01*
X148281Y143951D01*
X119148D01*
X156549Y140014D02*
X215998D01*
X156549Y149463D02*
X161667D01*
X163636Y147494D01*
X171510D01*
X172297Y146707D01*
X184108D01*
X184896Y147494D01*
X230171D01*
X240014Y137652D01*
X251037D01*
X262848Y125841D01*
X365211D01*
Y126234D01*
X156549Y152612D02*
X162337Y152610D01*
X163754Y151194D01*
X168480Y151193D01*
X156549Y155762D02*
X127809D01*
X124659Y152612D01*
X111667D01*
X156549Y155762D02*
X162023Y155761D01*
X162968Y156706D01*
X168480Y156705D01*
X157927Y199856D02*
X152022D01*
X158321Y237258D02*
Y231746D01*
X155368Y228793D01*
Y224266D01*
X154974Y223872D01*
X158321Y237258D02*
X165604D01*
X160486Y34699D02*
Y25053D01*
Y40604D02*
Y48281D01*
X164030Y51825D01*
X163833Y199856D02*
X180867D01*
X165604Y237258D02*
Y249620D01*
X167415Y251431D01*
X195526Y156156D02*
X183321D01*
X180171Y159305D01*
X175447D01*
X172297Y156156D01*
X169029D01*
X168480Y156705D01*
X203400Y206156D02*
Y200959D01*
X203439Y200919D01*
Y199541D01*
X213833Y206156D02*
X203400D01*
X218951Y230171D02*
Y220526D01*
X219935Y219541D01*
X219738Y206156D02*
Y199069D01*
X219935Y219541D02*
X214030D01*
X227809D02*
Y221510D01*
X230171Y223872D01*
Y229974D01*
X230368Y230171D01*
X237652D01*
Y249226D01*
X239069Y250644D01*
X264423Y179226D02*
X288321D01*
X288360Y179187D01*
X264423Y189226D02*
X284226D01*
X288360Y185093D01*
X290822Y33715D02*
Y49836D01*
X288833Y51825D01*
X164030D01*
X354659Y113242D02*
X354581Y113321D01*
Y120722D01*
X262455D01*
X249463Y133715D01*
X236864D01*
X225841Y144738D01*
X213636D01*
X212848Y143951D01*
X162848D01*
X160486Y146313D01*
X156549D01*
X358715Y101825D02*
X356943D01*
X354187Y104581D01*
Y112770D01*
X354659Y113242D01*
X364620Y101825D02*
X371904D01*
X374659Y104581D01*
Y113242D01*
X364659D02*
Y125683D01*
X365211Y126234D01*
X371707D02*
X365211D01*
X374659Y113242D02*
Y118360D01*
X377415Y121116D01*
Y126037D01*
X377612Y126234D01*
D02*
D70*
X78596Y88833D03*
Y132533D03*
X80959Y198675D03*
X85289Y164817D03*
X86077Y74856D03*
Y93557D03*
X88045Y188045D03*
Y214423D03*
X91589Y105368D03*
Y125841D03*
X91982Y208518D03*
X92770Y159699D03*
X114423Y117573D03*
X119148Y143951D03*
X120329Y182140D03*
Y229778D03*
X127809Y79384D03*
Y93557D03*
Y138439D03*
X130959Y105368D03*
Y115211D03*
X137258Y99463D03*
Y120329D03*
X143557Y85289D03*
Y138439D03*
X153400Y216392D03*
X153793Y131352D03*
X155762Y94344D03*
Y125053D03*
X163242Y180171D03*
X164030Y51825D03*
X215998Y140014D03*
X236077Y125053D03*
X238045Y182533D03*
X246707Y185683D03*
D02*
D71*
X111667Y136864D03*
Y140014D03*
Y143163D03*
Y146313D03*
Y149463D03*
Y152612D03*
Y155762D03*
Y158911D03*
Y162061D03*
Y165211D03*
Y168360D03*
X156549Y136864D03*
Y140014D03*
Y143163D03*
Y146313D03*
Y149463D03*
Y152612D03*
Y155762D03*
Y158911D03*
Y162061D03*
Y165211D03*
Y168360D03*
D02*
D20*
X118360Y130171D03*
Y175053D03*
X121510Y130171D03*
Y175053D03*
X124659Y130171D03*
Y175053D03*
X127809Y130171D03*
Y175053D03*
X130959Y130171D03*
Y175053D03*
X134108Y130171D03*
Y175053D03*
X137258Y130171D03*
Y175053D03*
X140407Y130171D03*
Y175053D03*
X143557Y130171D03*
Y175053D03*
X146707Y130171D03*
Y175053D03*
X149856Y130171D03*
Y175053D03*
D02*
D22*
X264423Y189226D03*
X374659Y113242D03*
D02*
D23*
X264423Y139226D03*
Y149226D03*
Y159226D03*
Y169226D03*
Y179226D03*
X344659Y113242D03*
X354659D03*
X364659D03*
D02*
D24*
X59305Y198675D03*
Y208518D03*
X67179Y198675D03*
Y208518D03*
D02*
D26*
X44541Y198675D03*
Y208518D03*
X50447Y198675D03*
Y208518D03*
X77612Y188439D03*
X83518D03*
X113439Y217967D03*
X119344D03*
X125250Y52612D03*
X126431Y223478D03*
X131156Y52612D03*
X132337Y223478D03*
X137455Y52612D03*
X143360D03*
X146116Y199856D03*
X152022D03*
X157927D03*
X163833D03*
X213833Y206156D03*
X219738D03*
X358715Y101825D03*
X364620D03*
X371707Y126234D03*
X377612D03*
D02*
D27*
X93557Y68951D03*
Y74856D03*
X97613Y193910D03*
Y199816D03*
X100644Y68951D03*
Y74856D03*
X105092Y193910D03*
Y199816D03*
X160486Y34699D03*
Y40604D03*
X288360Y179187D03*
Y185093D03*
D02*
D28*
X99187Y148437D03*
Y153949D03*
X112180Y194107D03*
Y199619D03*
X123991Y194107D03*
Y199619D03*
X129896Y194106D03*
Y199618D03*
X168480Y151193D03*
Y156705D03*
D02*
D29*
X70132Y179778D03*
X73872Y171116D03*
X77612Y179778D03*
D02*
D72*
X100644Y59699D03*
X106156D03*
X113636Y224266D03*
X119148D03*
X137652Y58911D03*
X143163D03*
D02*
D73*
X193596Y199541D03*
X203439D03*
D02*
D75*
X7789Y170722D03*
X19404D03*
D02*
D76*
X13596Y164719D03*
Y176608D03*
D02*
D77*
X17179Y75841D03*
X19541Y196707D03*
X374659Y77809D03*
Y197888D03*
D02*
D103*
X12848Y101431D03*
Y109305D03*
Y117179D03*
Y125053D03*
Y132927D03*
Y140801D03*
Y148675D03*
Y156549D03*
X65998Y101431D03*
Y109305D03*
Y117179D03*
Y125053D03*
Y132927D03*
Y140801D03*
Y148675D03*
Y156549D03*
D02*
D104*
X110507Y254187D03*
X125074Y33715D03*
X130565Y261523D03*
X138874Y33715D03*
X170867Y216392D03*
X286221Y94738D03*
X286615Y68360D03*
X290822Y33715D03*
X299319Y220722D03*
Y250644D03*
X304622Y33715D03*
D02*
D123*
X44541Y188045D03*
X86470Y12848D03*
X99187Y141982D03*
X105092Y205368D03*
X106156Y218360D03*
X109699Y53793D03*
X139620Y199856D03*
X141195Y223872D03*
X178203Y151825D03*
X180867Y199856D03*
X195526Y156156D03*
Y174659D03*
X196234Y25053D03*
X214030Y219541D03*
X219738Y199069D03*
D02*
D124*
X119148Y61077D03*
Y64817D03*
Y68557D03*
X129384Y61077D03*
Y64817D03*
Y68557D03*
D02*
D125*
X96707Y254187D03*
X111274Y33715D03*
X277022D03*
D02*
D126*
X167415Y251431D03*
X177415D03*
X187415D03*
X239069Y250644D03*
X249069D03*
X259069D03*
D02*
D127*
X94474Y233321D03*
X111274D03*
D02*
D128*
X130565Y251523D03*
X180867Y216392D03*
X289319Y220722D03*
Y250644D03*
X296221Y94738D03*
X296615Y68360D03*
D02*
D129*
X165604Y237258D03*
X177415D03*
X237652Y230171D03*
X249463D03*
D02*
D130*
X146904Y237258D03*
X158321D03*
X218951Y230171D03*
X230368D03*
D02*
D131*
X147100Y223872D03*
X154974D03*
X219935Y219541D03*
X227809D03*
D02*
D132*
X176234Y106156D03*
D02*
D133*
X186234D03*
X196234D03*
X206234D03*
X216234D03*
X226234D03*
X236234D03*
X246234D03*
X0Y0D02*
M02*
