G04 DesignSpark PCB Gerber Version 10.0 Build 5299*
G04 #@! TF.Part,Single*
G04 #@! TF.FileFunction,Soldermask,Top*
G04 #@! TF.FilePolarity,Negative*
%FSLAX35Y35*%
%MOIN*%
G04 #@! TA.AperFunction,SMDPad,CuDef*
%ADD82R,0.02800X0.06500*%
%ADD91R,0.02962X0.04734*%
%ADD142R,0.03041X0.06387*%
%ADD92R,0.03671X0.04458*%
%ADD88R,0.03946X0.04537*%
%ADD86R,0.04143X0.06112*%
%ADD96R,0.04537X0.04734*%
%ADD140R,0.04734X0.07687*%
%ADD95R,0.04734X0.09261*%
%ADD141R,0.04931X0.07687*%
%ADD138R,0.07490X0.11033*%
G04 #@! TA.AperFunction,ComponentPad*
%ADD135R,0.06506X0.06506*%
%ADD139R,0.06600X0.06600*%
%ADD84R,0.08600X0.08600*%
%ADD93C,0.04931*%
%ADD144C,0.06500*%
%ADD136C,0.06600*%
%ADD137C,0.07600*%
%ADD85C,0.08600*%
G04 #@! TA.AperFunction,SMDPad,CuDef*
%ADD134R,0.05324X0.02765*%
%ADD81R,0.06500X0.02800*%
%ADD90R,0.04458X0.03671*%
%ADD89R,0.04537X0.03946*%
G04 #@! TA.AperFunction,ComponentPad*
%ADD97C,0.25797*%
%AMT121*0 Rounded Rectangle Pad at angle 90*4,1,56,0.05221,-0.01108,0.05221,0.01108,0.05206,0.01367,0.05159,0.01621,0.05081,0.01869,0.04975,0.02105,0.04841,0.02326,0.04681,0.02530,0.04498,0.02713,0.04294,0.02873,0.04073,0.03007,0.03837,0.03113,0.03589,0.03191,0.03335,0.03237,0.03076,0.03253,-0.03076,0.03253,-0.03335,0.03237,-0.03590,0.03190,-0.03837,0.03113,-0.04073,0.03007,-0.04295,0.02873,-0.04499,0.02713,-0.04682,0.02530,-0.04842,0.02326,-0.04976,0.02104,-0.05082,0.01868,-0.05159,0.01621,-0.05206,0.01366,-0.05221,0.01108,-0.05221,-0.01108,-0.05206,-0.01367,-0.05159,-0.01621,-0.05081,-0.01869,-0.04975,-0.02105,-0.04841,-0.02326,-0.04681,-0.02530,-0.04498,-0.02713,-0.04294,-0.02873,-0.04073,-0.03007,-0.03837,-0.03113,-0.03589,-0.03191,-0.03335,-0.03237,-0.03076,-0.03253,0.03076,-0.03253,0.03335,-0.03237,0.03590,-0.03190,0.03837,-0.03113,0.04073,-0.03007,0.04295,-0.02873,0.04499,-0.02713,0.04682,-0.02530,0.04842,-0.02326,0.04976,-0.02104,0.05082,-0.01868,0.05159,-0.01621,0.05206,-0.01366,0.05221,-0.01108,0*%
%ADD121T121*%
%ADD143R,0.06500X0.06500*%
G04 #@! TD.AperFunction*
X0Y0D02*
D02*
D81*
X111667Y136864D03*
Y140014D03*
Y143163D03*
Y146313D03*
Y149463D03*
Y152612D03*
Y155762D03*
Y158911D03*
Y162061D03*
Y165211D03*
Y168360D03*
X156549Y136864D03*
Y140014D03*
Y143163D03*
Y146313D03*
Y149463D03*
Y152612D03*
Y155762D03*
Y158911D03*
Y162061D03*
Y165211D03*
Y168360D03*
D02*
D82*
X118360Y130171D03*
Y175053D03*
X121510Y130171D03*
Y175053D03*
X124659Y130171D03*
Y175053D03*
X127809Y130171D03*
Y175053D03*
X130959Y130171D03*
Y175053D03*
X134108Y130171D03*
Y175053D03*
X137258Y130171D03*
Y175053D03*
X140407Y130171D03*
Y175053D03*
X143557Y130171D03*
Y175053D03*
X146707Y130171D03*
Y175053D03*
X149856Y130171D03*
Y175053D03*
D02*
D84*
X264423Y189226D03*
X374659Y113242D03*
D02*
D85*
X264423Y139226D03*
Y149226D03*
Y159226D03*
Y169226D03*
Y179226D03*
X344659Y113242D03*
X354659D03*
X364659D03*
D02*
D86*
X59305Y198675D03*
Y208518D03*
X67179Y198675D03*
Y208518D03*
D02*
D88*
X44541Y198675D03*
Y208518D03*
X50447Y198675D03*
Y208518D03*
X77612Y188439D03*
X83518D03*
X113439Y217967D03*
X119344D03*
X125250Y52612D03*
X126431Y223478D03*
X131156Y52612D03*
X132337Y223478D03*
X137455Y52612D03*
X143360D03*
X146116Y199856D03*
X152022D03*
X157927D03*
X163833D03*
X213833Y206156D03*
X219738D03*
X358715Y101825D03*
X364620D03*
X371707Y126234D03*
X377612D03*
D02*
D89*
X93557Y68951D03*
Y74856D03*
X97613Y193910D03*
Y199816D03*
X100644Y68951D03*
Y74856D03*
X105092Y193910D03*
Y199816D03*
X160486Y34699D03*
Y40604D03*
X288360Y179187D03*
Y185093D03*
D02*
D90*
X99187Y148437D03*
Y153949D03*
X112180Y194107D03*
Y199619D03*
X123991Y194107D03*
Y199619D03*
X129896Y194106D03*
Y199618D03*
X168480Y151193D03*
Y156705D03*
D02*
D91*
X70132Y179778D03*
X73872Y171116D03*
X77612Y179778D03*
D02*
D92*
X100644Y59699D03*
X106156D03*
X113636Y224266D03*
X119148D03*
X137652Y58911D03*
X143163D03*
D02*
D93*
X193596Y199541D03*
X203439D03*
D02*
D95*
X7789Y170722D03*
X19404D03*
D02*
D96*
X13596Y164719D03*
Y176608D03*
D02*
D97*
X17179Y75841D03*
X19541Y196707D03*
X374659Y77809D03*
Y197888D03*
D02*
D121*
X12848Y101431D03*
Y109305D03*
Y117179D03*
Y125053D03*
Y132927D03*
Y140801D03*
Y148675D03*
Y156549D03*
X65998Y101431D03*
Y109305D03*
Y117179D03*
Y125053D03*
Y132927D03*
Y140801D03*
Y148675D03*
Y156549D03*
D02*
D134*
X119148Y61077D03*
Y64817D03*
Y68557D03*
X129384Y61077D03*
Y64817D03*
Y68557D03*
D02*
D135*
X96707Y254187D03*
X111274Y33715D03*
X277022D03*
D02*
D136*
X110507Y254187D03*
X125074Y33715D03*
X130565Y261523D03*
X138874Y33715D03*
X170867Y216392D03*
X286221Y94738D03*
X286615Y68360D03*
X290822Y33715D03*
X299319Y220722D03*
Y250644D03*
X304622Y33715D03*
D02*
D137*
X167415Y251431D03*
X177415D03*
X187415D03*
X239069Y250644D03*
X249069D03*
X259069D03*
D02*
D138*
X94474Y233321D03*
X111274D03*
D02*
D139*
X130565Y251523D03*
X180867Y216392D03*
X289319Y220722D03*
Y250644D03*
X296221Y94738D03*
X296615Y68360D03*
D02*
D140*
X165604Y237258D03*
X177415D03*
X237652Y230171D03*
X249463D03*
D02*
D141*
X146904Y237258D03*
X158321D03*
X218951Y230171D03*
X230368D03*
D02*
D142*
X147100Y223872D03*
X154974D03*
X219935Y219541D03*
X227809D03*
D02*
D143*
X176234Y106156D03*
D02*
D144*
X186234D03*
X196234D03*
X206234D03*
X216234D03*
X226234D03*
X236234D03*
X246234D03*
X0Y0D02*
M02*
