G04 DesignSpark PCB Gerber Version 10.0 Build 5299*
G04 #@! TF.Part,Single*
G04 #@! TF.FileFunction,Soldermask,Bot*
G04 #@! TF.FilePolarity,Negative*
%FSLAX35Y35*%
%MOIN*%
G04 #@! TA.AperFunction,ComponentPad*
%ADD135R,0.06506X0.06506*%
%ADD139R,0.06600X0.06600*%
%ADD84R,0.08600X0.08600*%
%ADD93C,0.04931*%
%ADD144C,0.06500*%
%ADD136C,0.06600*%
%ADD137C,0.07600*%
%ADD85C,0.08600*%
%ADD97C,0.25797*%
%AMT121*0 Rounded Rectangle Pad at angle 90*4,1,56,0.05221,-0.01108,0.05221,0.01108,0.05206,0.01367,0.05159,0.01621,0.05081,0.01869,0.04975,0.02105,0.04841,0.02326,0.04681,0.02530,0.04498,0.02713,0.04294,0.02873,0.04073,0.03007,0.03837,0.03113,0.03589,0.03191,0.03335,0.03237,0.03076,0.03253,-0.03076,0.03253,-0.03335,0.03237,-0.03590,0.03190,-0.03837,0.03113,-0.04073,0.03007,-0.04295,0.02873,-0.04499,0.02713,-0.04682,0.02530,-0.04842,0.02326,-0.04976,0.02104,-0.05082,0.01868,-0.05159,0.01621,-0.05206,0.01366,-0.05221,0.01108,-0.05221,-0.01108,-0.05206,-0.01367,-0.05159,-0.01621,-0.05081,-0.01869,-0.04975,-0.02105,-0.04841,-0.02326,-0.04681,-0.02530,-0.04498,-0.02713,-0.04294,-0.02873,-0.04073,-0.03007,-0.03837,-0.03113,-0.03589,-0.03191,-0.03335,-0.03237,-0.03076,-0.03253,0.03076,-0.03253,0.03335,-0.03237,0.03590,-0.03190,0.03837,-0.03113,0.04073,-0.03007,0.04295,-0.02873,0.04499,-0.02713,0.04682,-0.02530,0.04842,-0.02326,0.04976,-0.02104,0.05082,-0.01868,0.05159,-0.01621,0.05206,-0.01366,0.05221,-0.01108,0*%
%ADD121T121*%
%ADD143R,0.06500X0.06500*%
G04 #@! TD.AperFunction*
X0Y0D02*
D02*
D84*
X264423Y189226D03*
X374659Y113242D03*
D02*
D85*
X264423Y139226D03*
Y149226D03*
Y159226D03*
Y169226D03*
Y179226D03*
X344659Y113242D03*
X354659D03*
X364659D03*
D02*
D93*
X193596Y199541D03*
X203439D03*
D02*
D97*
X17179Y75841D03*
X19541Y196707D03*
X374659Y77809D03*
Y197888D03*
D02*
D121*
X12848Y101431D03*
Y109305D03*
Y117179D03*
Y125053D03*
Y132927D03*
Y140801D03*
Y148675D03*
Y156549D03*
X65998Y101431D03*
Y109305D03*
Y117179D03*
Y125053D03*
Y132927D03*
Y140801D03*
Y148675D03*
Y156549D03*
D02*
D135*
X96707Y254187D03*
X111274Y33715D03*
X277022D03*
D02*
D136*
X110507Y254187D03*
X125074Y33715D03*
X130565Y261523D03*
X138874Y33715D03*
X170867Y216392D03*
X286221Y94738D03*
X286615Y68360D03*
X290822Y33715D03*
X299319Y220722D03*
Y250644D03*
X304622Y33715D03*
D02*
D137*
X167415Y251431D03*
X177415D03*
X187415D03*
X239069Y250644D03*
X249069D03*
X259069D03*
D02*
D139*
X130565Y251523D03*
X180867Y216392D03*
X289319Y220722D03*
Y250644D03*
X296221Y94738D03*
X296615Y68360D03*
D02*
D143*
X176234Y106156D03*
D02*
D144*
X186234D03*
X196234D03*
X206234D03*
X216234D03*
X226234D03*
X236234D03*
X246234D03*
X0Y0D02*
M02*
