G05
M48
INCH,TZ
FMAT,2
T1C000.02362
T2C000.02400
T3C000.03150
T4C000.03200
T5C000.03500
T6C000.03900
T7C000.03937
T8C000.04200
T9C000.12598
%
T001
X1.93596Y1.99541
X2.03439Y1.99541
T002
X0.78596Y0.88833
X0.78596Y1.32533
X0.80959Y1.98675
X0.85289Y1.64817
X0.86077Y0.74856
X0.86077Y0.93557
X0.88045Y1.88045
X0.88045Y2.14423
X0.91589Y1.05368
X0.91589Y1.25841
X0.91982Y2.08518
X0.92770Y1.59699
X1.14423Y1.17573
X1.19148Y1.43951
X1.20329Y1.82140
X1.20329Y2.29778
X1.27809Y0.79384
X1.27809Y0.93557
X1.27809Y1.38439
X1.30959Y1.05368
X1.30959Y1.15211
X1.37258Y0.99463
X1.37258Y1.20329
X1.43557Y0.85289
X1.43557Y1.38439
X1.53400Y2.16392
X1.53793Y1.31352
X1.55762Y0.94344
X1.55762Y1.25053
X1.63242Y1.80171
X1.64030Y0.51825
X2.15998Y1.40014
X2.36077Y1.25053
X2.38045Y1.82533
X2.46707Y1.85683
T003
X1.30565Y2.51523
X1.30565Y2.61523
X1.70867Y2.16392
X1.80867Y2.16392
X2.86221Y0.94738
X2.86615Y0.68360
X2.89319Y2.20722
X2.89319Y2.50644
X2.96221Y0.94738
X2.96615Y0.68360
X2.99319Y2.20722
X2.99319Y2.50644
T004
X0.44541Y1.88045
X0.86470Y0.12848
X0.99187Y1.41982
X1.05092Y2.05368
X1.06156Y2.18360
X1.09699Y0.53793
X1.39620Y1.99856
X1.41195Y2.23872
X1.78203Y1.51825
X1.80867Y1.99856
X1.95526Y1.56156
X1.95526Y1.74659
X1.96234Y0.25053
X2.14030Y2.19541
X2.19738Y1.99069
T005
X1.10507Y2.54187
X1.25074Y0.33715
X1.38874Y0.33715
X2.90822Y0.33715
X3.04622Y0.33715
T006
X1.76234Y1.06156
X1.86234Y1.06156
X1.96234Y1.06156
X2.06234Y1.06156
X2.16234Y1.06156
X2.26234Y1.06156
X2.36234Y1.06156
X2.46234Y1.06156
T007
X0.12848Y1.01431
X0.12848Y1.09305
X0.12848Y1.17179
X0.12848Y1.25053
X0.12848Y1.32927
X0.12848Y1.40801
X0.12848Y1.48675
X0.12848Y1.56549
X0.65998Y1.01431
X0.65998Y1.09305
X0.65998Y1.17179
X0.65998Y1.25053
X0.65998Y1.32927
X0.65998Y1.40801
X0.65998Y1.48675
X0.65998Y1.56549
X0.96707Y2.54187
X1.11274Y0.33715
X2.64423Y1.39226
X2.64423Y1.49226
X2.64423Y1.59226
X2.64423Y1.69226
X2.64423Y1.79226
X2.64423Y1.89226
X2.77022Y0.33715
X3.44659Y1.13242
X3.54659Y1.13242
X3.64659Y1.13242
X3.74659Y1.13242
T008
X1.67415Y2.51431
X1.77415Y2.51431
X1.87415Y2.51431
X2.39069Y2.50644
X2.49069Y2.50644
X2.59069Y2.50644
T009
X0.17179Y0.75841
X0.19541Y1.96707
X3.74659Y0.77809
X3.74659Y1.97888
M30
